<svg xmlns="http://www.w3.org/2000/svg" xmlns:xlink="http://www.w3.org/1999/xlink" width="1080" zoomAndPan="magnify" viewBox="0 0 810 809.999993" height="1080" preserveAspectRatio="xMidYMid meet" version="1.0"><path fill="#6b625f" d="M 780.898438 569.984375 C 737.296875 690.726562 590.605469 790.144531 432.269531 803.324219 C 428.851562 803.605469 425.4375 803.855469 422.011719 804.050781 C 411 804.714844 399.949219 804.941406 388.875 804.734375 C 386.058594 804.6875 383.246094 804.601562 380.425781 804.488281 C 371.171875 804.132812 361.917969 803.449219 352.664062 802.441406 C 341.800781 801.257812 330.949219 799.632812 320.140625 797.535156 C 319.285156 797.363281 318.414062 797.191406 317.550781 797.011719 C 316.035156 796.71875 314.523438 796.40625 313.007812 796.074219 C 313.007812 796.074219 313.007812 796.066406 312.996094 796.066406 C 309.023438 795.234375 305.046875 794.316406 301.09375 793.332031 C 300.921875 793.296875 300.75 793.246094 300.585938 793.199219 C 296.257812 792.132812 291.945312 790.976562 287.648438 789.734375 C 287.195312 789.613281 286.738281 789.480469 286.285156 789.351562 C 285.792969 789.203125 285.292969 789.054688 284.800781 788.914062 C 282.179688 788.136719 279.566406 787.332031 276.957031 786.492188 C 276.945312 786.492188 276.945312 786.492188 276.9375 786.480469 C 273.976562 785.542969 271.003906 784.5625 268.050781 783.53125 C 267.117188 783.210938 266.1875 782.875 265.25 782.542969 C 260.378906 780.804688 255.515625 778.960938 250.679688 777 C 247.878906 775.867188 245.078125 774.691406 242.285156 773.488281 C 240.542969 772.734375 238.804688 771.957031 237.074219 771.179688 C 235.160156 770.308594 233.257812 769.429688 231.359375 768.53125 C 231.140625 768.429688 230.929688 768.335938 230.714844 768.226562 C 229.871094 767.832031 229.027344 767.433594 228.199219 767.027344 C 225.066406 765.515625 221.960938 763.953125 218.894531 762.359375 C 212.585938 759.078125 206.414062 755.636719 200.394531 752.046875 C 199.480469 751.507812 198.570312 750.960938 197.660156 750.402344 C 194.257812 748.332031 190.898438 746.21875 187.585938 744.042969 C 184.78125 742.226562 182.011719 740.359375 179.285156 738.449219 C 178.824219 738.136719 178.359375 737.824219 177.90625 737.492188 C 176.730469 736.683594 175.566406 735.847656 174.40625 735.015625 C 173.222656 734.164062 172.046875 733.316406 170.882812 732.449219 C 143.972656 712.644531 120.527344 689.664062 100.53125 664.53125 C 99.132812 662.78125 97.757812 661.03125 96.40625 659.25 C 96.40625 659.25 96.40625 659.25 96.398438 659.238281 C 81.84375 640.296875 69.210938 620.199219 58.511719 599.371094 C 58.5 599.363281 58.5 599.363281 58.5 599.363281 C 8.957031 503.113281 0.183594 391.269531 31.609375 305.476562 C 63.304688 218.914062 137.507812 154.523438 155.867188 138.597656 C 231.652344 72.84375 307.539062 48.074219 324.648438 42.734375 C 445.523438 5.058594 595.011719 14.585938 610.265625 60.484375 C 616.703125 79.847656 593.507812 88.34375 591.71875 119.066406 C 588 182.882812 683.976562 214.933594 740.097656 282.394531 C 809.828125 366.210938 808.585938 493.328125 780.898438 569.984375 " fill-opacity="1" fill-rule="nonzero"/><path fill="#da0803" d="M 487.367188 67.867188 C 495.328125 72.40625 498.109375 82.539062 493.566406 90.5 C 489.03125 98.464844 478.890625 101.238281 470.933594 96.703125 C 462.972656 92.160156 460.195312 82.027344 464.734375 74.0625 C 469.273438 66.101562 479.410156 63.328125 487.367188 67.867188 Z M 451.773438 62.96875 L 448.585938 68.566406 L 453.78125 73.316406 C 453.277344 74.746094 452.890625 76.195312 452.636719 77.660156 L 445.785156 79.242188 L 445.820312 85.691406 L 452.695312 87.199219 C 452.972656 88.671875 453.371094 90.117188 453.882812 91.527344 L 448.734375 96.332031 L 451.988281 101.898438 L 458.695312 99.769531 C 459.652344 100.898438 460.726562 101.953125 461.890625 102.925781 L 459.835938 109.65625 L 465.433594 112.851562 L 470.183594 107.648438 C 471.609375 108.160156 473.066406 108.542969 474.523438 108.796875 L 476.109375 115.648438 L 482.558594 115.617188 L 484.070312 108.734375 C 485.542969 108.460938 486.988281 108.066406 488.394531 107.550781 L 493.203125 112.699219 L 498.761719 109.441406 L 496.640625 102.746094 C 497.765625 101.777344 498.820312 100.710938 499.792969 99.542969 L 506.527344 101.597656 L 509.71875 96 L 504.519531 91.25 C 505.023438 89.824219 505.410156 88.371094 505.664062 86.910156 L 512.515625 85.324219 L 512.480469 78.878906 L 505.605469 77.367188 C 505.328125 75.890625 504.929688 74.445312 504.417969 73.039062 L 509.566406 68.234375 L 506.3125 62.667969 L 499.609375 64.796875 C 498.648438 63.667969 497.574219 62.613281 496.410156 61.644531 L 498.46875 54.910156 L 492.867188 51.71875 L 488.121094 56.914062 C 486.691406 56.40625 485.242188 56.027344 483.777344 55.765625 L 482.195312 48.917969 L 475.746094 48.953125 L 474.230469 55.832031 C 472.761719 56.109375 471.316406 56.5 469.90625 57.015625 L 465.101562 51.867188 L 459.539062 55.121094 L 461.664062 61.824219 C 460.535156 62.789062 459.484375 63.859375 458.507812 65.023438 L 451.773438 62.96875 " fill-opacity="1" fill-rule="nonzero"/><path fill="#da0803" d="M 400.597656 114.417969 C 414.222656 122.1875 418.96875 139.527344 411.203125 153.148438 C 403.433594 166.773438 386.097656 171.523438 372.46875 163.753906 C 358.84375 155.992188 354.097656 138.648438 361.863281 125.023438 C 369.632812 111.394531 386.972656 106.648438 400.597656 114.417969 Z M 339.6875 106.03125 L 334.226562 115.617188 L 343.121094 123.738281 C 342.257812 126.183594 341.601562 128.671875 341.160156 131.171875 L 329.4375 133.886719 L 329.496094 144.914062 L 341.269531 147.5 C 341.734375 150.019531 342.414062 152.496094 343.296875 154.902344 L 334.484375 163.128906 L 340.054688 172.652344 L 351.523438 169.011719 C 353.175781 170.941406 355.007812 172.746094 357 174.40625 L 353.480469 185.929688 L 363.0625 191.394531 L 371.1875 182.496094 C 373.632812 183.363281 376.117188 184.019531 378.621094 184.457031 L 381.332031 196.179688 L 392.359375 196.121094 L 394.949219 184.351562 C 397.46875 183.882812 399.945312 183.203125 402.351562 182.324219 L 410.574219 191.136719 L 420.097656 185.5625 L 416.460938 174.097656 C 418.390625 172.445312 420.191406 170.617188 421.855469 168.621094 L 433.375 172.140625 L 438.839844 162.558594 L 429.941406 154.433594 C 430.808594 151.988281 431.464844 149.507812 431.902344 147.003906 L 443.628906 144.292969 L 443.570312 133.257812 L 431.796875 130.671875 C 431.328125 128.148438 430.652344 125.675781 429.773438 123.265625 L 438.582031 115.042969 L 433.011719 105.519531 L 421.542969 109.160156 C 419.894531 107.234375 418.0625 105.429688 416.070312 103.765625 L 419.585938 92.242188 L 410.003906 86.78125 L 401.878906 95.675781 C 399.433594 94.808594 396.949219 94.152344 394.445312 93.714844 L 391.738281 81.996094 L 380.703125 82.054688 L 378.117188 93.820312 C 375.597656 94.289062 373.121094 94.972656 370.714844 95.847656 L 362.492188 87.042969 L 352.96875 92.605469 L 356.609375 104.078125 C 354.675781 105.726562 352.875 107.558594 351.214844 109.550781 L 339.6875 106.03125 " fill-opacity="1" fill-rule="nonzero"/><path fill="#f1a071" d="M 522.058594 507.859375 L 370.453125 508.816406 C 369.472656 508.816406 369.148438 509.726562 369.148438 510.605469 L 369.148438 639.585938 C 369.148438 651.9375 283.011719 684.019531 282.171875 682.390625 L 282.070312 696.039062 C 282.0625 698.582031 284.296875 700.835938 287.144531 700.835938 L 289.039062 700.835938 C 289.054688 700.835938 289.066406 700.835938 289.078125 700.835938 L 416.1875 700.835938 C 422.085938 700.835938 427.914062 699.519531 433.253906 697.28125 L 503.136719 667.855469 C 515.71875 662.554688 523.65625 651.175781 523.65625 638.765625 L 523.65625 509.652344 C 523.65625 508.777344 523.042969 507.859375 522.058594 507.859375 " fill-opacity="1" fill-rule="nonzero"/><path fill="#ffffff" d="M 353.796875 501.300781 L 353.796875 630.308594 C 353.796875 643.03125 345.613281 654.617188 332.75 660.105469 L 285.609375 680.226562 C 282.527344 681.546875 283.578125 685.667969 286.992188 685.667969 L 416.523438 685.667969 C 422.351562 685.667969 428.101562 684.519531 433.367188 682.304688 L 485.605469 660.308594 C 498.5625 654.855469 506.828125 643.21875 506.828125 630.4375 L 506.828125 501.300781 C 506.828125 500.773438 506.347656 500.34375 505.753906 500.34375 L 354.871094 500.34375 C 354.277344 500.34375 353.796875 500.773438 353.796875 501.300781 " fill-opacity="1" fill-rule="nonzero"/><path fill="#000000" d="M 505.753906 501.765625 L 505.765625 501.765625 Z M 355.214844 501.765625 L 355.214844 630.308594 C 355.214844 643.523438 346.617188 655.730469 333.308594 661.414062 L 286.164062 681.535156 C 285.132812 681.972656 285.164062 682.726562 285.226562 683.027344 C 285.339844 683.59375 285.871094 684.253906 286.992188 684.253906 L 416.523438 684.253906 C 422.125 684.253906 427.757812 683.125 432.816406 680.996094 L 485.050781 659 C 497.414062 653.796875 505.40625 642.585938 505.40625 630.4375 L 505.40625 501.765625 Z M 416.523438 687.089844 L 286.992188 687.089844 C 284.734375 687.089844 282.867188 685.65625 282.445312 683.601562 C 282.042969 681.640625 283.089844 679.757812 285.050781 678.921875 L 332.199219 658.800781 C 344.453125 653.566406 352.375 642.382812 352.375 630.308594 L 352.375 501.300781 C 352.375 499.992188 353.496094 498.925781 354.871094 498.925781 L 505.753906 498.925781 C 507.128906 498.925781 508.242188 499.992188 508.242188 501.300781 L 508.242188 630.4375 C 508.242188 643.730469 499.574219 655.964844 486.15625 661.617188 L 433.921875 683.609375 C 428.515625 685.886719 422.496094 687.089844 416.523438 687.089844 " fill-opacity="1" fill-rule="nonzero"/><path fill="#da0803" d="M 71.390625 574.402344 L 694.757812 575.765625 L 705.582031 575.785156 L 725.707031 575.832031 C 731.425781 575.832031 736.125 571.367188 736.851562 565.679688 L 788.972656 158.355469 C 790.238281 148.445312 783.015625 139.085938 773.046875 139.085938 L 127.191406 139.675781 L 71.390625 574.402344 " fill-opacity="1" fill-rule="nonzero"/><path fill="#f1a071" d="M 748.820312 138.992188 C 760.058594 138.992188 769.203125 150.3125 767.761719 161.492188 L 715.269531 565.695312 C 714.535156 571.382812 709.710938 575.636719 703.992188 575.636719 L 699.070312 575.824219 L 62.75 575.636719 C 55.890625 575.636719 50.597656 569.597656 51.472656 562.78125 L 105.027344 150.351562 C 105.757812 144.664062 110.128906 138.992188 115.84375 138.992188 L 748.820312 138.992188 " fill-opacity="1" fill-rule="nonzero"/><path fill="#ffffff" d="M 147.039062 186.296875 C 147.457031 183.054688 150.210938 180.625 153.472656 180.625 L 723.34375 180.625 C 729.761719 180.625 734.71875 186.277344 733.898438 192.660156 L 688.691406 531.539062 C 688.273438 534.78125 685.519531 537.210938 682.257812 537.210938 L 106.90625 537.210938 C 103.359375 537.210938 100.625 534.089844 101.09375 530.574219 L 147.039062 186.296875 " fill-opacity="1" fill-rule="nonzero"/><path fill="#6b625f" d="M 692.1875 296.382812 L 269.195312 296.382812 C 263.074219 296.382812 258.351562 290.992188 259.15625 284.925781 L 272.507812 181.707031 L 715.933594 181.707031 L 702.226562 287.585938 C 701.5625 292.617188 697.269531 296.382812 692.1875 296.382812 " fill-opacity="1" fill-rule="nonzero"/><path fill="#da0803" d="M 723.34375 180.625 C 729.761719 180.625 734.71875 186.277344 733.898438 192.660156 L 729.007812 221.109375 L 141.542969 221.015625 L 147.039062 186.296875 C 147.457031 183.054688 150.210938 180.625 153.472656 180.625 L 723.34375 180.625 " fill-opacity="1" fill-rule="nonzero"/><path fill="#000000" d="M 119.019531 397.875 C 118.957031 397.875 118.894531 397.871094 118.832031 397.863281 C 118.054688 397.761719 117.507812 397.042969 117.613281 396.265625 L 145.632812 186.109375 C 146.140625 182.179688 149.511719 179.203125 153.476562 179.203125 L 618.0625 178.996094 C 618.847656 178.996094 619.484375 179.632812 619.484375 180.414062 C 619.484375 181.199219 618.847656 181.835938 618.066406 181.835938 L 153.476562 182.046875 C 150.933594 182.046875 148.773438 183.949219 148.445312 186.476562 L 120.425781 396.644531 C 120.332031 397.355469 119.722656 397.875 119.019531 397.875 " fill-opacity="1" fill-rule="nonzero"/><path fill="#000000" d="M 517.429688 538.632812 L 298.484375 538.632812 C 297.699219 538.632812 297.0625 538 297.0625 537.210938 C 297.0625 536.425781 297.699219 535.792969 298.484375 535.792969 L 517.429688 535.792969 C 518.210938 535.792969 518.84375 536.425781 518.84375 537.210938 C 518.84375 538 518.210938 538.632812 517.429688 538.632812 " fill-opacity="1" fill-rule="nonzero"/><path fill="#000000" d="M 693.4375 496.984375 C 693.371094 496.984375 693.308594 496.976562 693.238281 496.96875 C 692.460938 496.863281 691.921875 496.144531 692.027344 495.367188 L 699.257812 442.804688 C 699.367188 442.027344 700.085938 441.488281 700.859375 441.59375 C 701.636719 441.699219 702.179688 442.414062 702.070312 443.191406 L 694.839844 495.753906 C 694.742188 496.46875 694.132812 496.984375 693.4375 496.984375 " fill-opacity="1" fill-rule="nonzero"/><path fill="#000000" d="M 720.347656 294.757812 C 720.289062 294.757812 720.226562 294.753906 720.160156 294.742188 C 719.382812 294.640625 718.839844 293.921875 718.941406 293.148438 L 732.488281 192.46875 C 732.828125 189.835938 732.011719 187.171875 730.257812 185.171875 C 728.507812 183.1875 725.988281 182.046875 723.34375 182.046875 L 671.472656 182.046875 C 670.691406 182.046875 670.050781 181.410156 670.050781 180.625 C 670.050781 179.839844 670.691406 179.203125 671.472656 179.203125 L 723.34375 179.203125 C 726.804688 179.203125 730.101562 180.699219 732.390625 183.296875 C 734.6875 185.910156 735.746094 189.386719 735.304688 192.839844 L 721.753906 293.527344 C 721.660156 294.242188 721.046875 294.757812 720.347656 294.757812 " fill-opacity="1" fill-rule="nonzero"/><path fill="#6b625f" d="M 406.945312 407.335938 C 407.457031 403.289062 404.304688 399.703125 400.222656 399.703125 L 189.5625 399.703125 C 186.152344 399.703125 183.273438 402.238281 182.84375 405.617188 C 182.324219 409.667969 185.480469 413.253906 189.5625 413.253906 L 400.222656 413.253906 C 403.632812 413.253906 406.511719 410.714844 406.945312 407.335938 " fill-opacity="1" fill-rule="nonzero"/><path fill="#6b625f" d="M 436.179688 202.671875 C 436.699219 198.621094 433.542969 195.035156 429.460938 195.035156 L 218.800781 195.035156 C 215.390625 195.035156 212.511719 197.574219 212.082031 200.953125 C 211.5625 205.003906 214.71875 208.589844 218.800781 208.589844 L 429.460938 208.589844 C 432.871094 208.589844 435.75 206.050781 436.179688 202.671875 " fill-opacity="1" fill-rule="nonzero"/><path fill="#6b625f" d="M 651.417969 202.671875 C 651.9375 198.621094 648.777344 195.035156 644.695312 195.035156 L 625.460938 195.035156 C 622.054688 195.035156 619.171875 197.574219 618.742188 200.953125 C 618.226562 205.003906 621.378906 208.589844 625.460938 208.589844 L 644.695312 208.589844 C 648.109375 208.589844 650.988281 206.050781 651.417969 202.671875 " fill-opacity="1" fill-rule="nonzero"/><path fill="#6b625f" d="M 397.265625 484.761719 C 397.78125 480.714844 394.628906 477.128906 390.546875 477.128906 L 179.882812 477.128906 C 176.476562 477.128906 173.597656 479.660156 173.164062 483.042969 C 172.648438 487.09375 175.800781 490.679688 179.882812 490.679688 L 390.546875 490.679688 C 393.953125 490.679688 396.832031 488.140625 397.265625 484.761719 " fill-opacity="1" fill-rule="nonzero"/><path fill="#6b625f" d="M 448.457031 438.414062 L 184.722656 438.414062 C 181.316406 438.414062 178.4375 440.953125 178.003906 444.332031 C 177.488281 448.382812 180.640625 451.96875 184.722656 451.96875 L 448.457031 451.96875 C 451.855469 451.96875 454.726562 449.449219 455.171875 446.078125 C 455.714844 442.019531 452.554688 438.414062 448.457031 438.414062 " fill-opacity="1" fill-rule="nonzero"/><path fill="#6b625f" d="M 458.726562 360.988281 L 194.402344 360.988281 C 190.992188 360.988281 188.113281 363.527344 187.683594 366.90625 C 187.164062 370.957031 190.320312 374.542969 194.402344 374.542969 L 458.726562 374.542969 C 462.125 374.542969 464.996094 372.023438 465.441406 368.65625 C 465.984375 364.597656 462.820312 360.988281 458.726562 360.988281 " fill-opacity="1" fill-rule="nonzero"/><path fill="#da0803" d="M 325.613281 262.820312 C 325.78125 261.851562 325.570312 261.109375 324.980469 260.597656 C 324.390625 260.078125 323.261719 259.535156 321.585938 258.960938 C 319.917969 258.390625 318.617188 257.824219 317.683594 257.269531 C 315.132812 255.75 314.085938 253.699219 314.535156 251.125 C 314.773438 249.785156 315.355469 248.589844 316.296875 247.546875 C 317.230469 246.492188 318.460938 245.671875 319.976562 245.082031 C 321.492188 244.492188 323.128906 244.195312 324.886719 244.195312 C 326.65625 244.195312 328.179688 244.519531 329.449219 245.15625 C 330.722656 245.800781 331.640625 246.707031 332.199219 247.875 C 332.761719 249.042969 332.914062 250.367188 332.652344 251.855469 L 327.546875 251.855469 C 327.746094 250.71875 327.546875 249.839844 326.941406 249.210938 C 326.335938 248.578125 325.386719 248.265625 324.089844 248.265625 C 322.839844 248.265625 321.828125 248.53125 321.042969 249.054688 C 320.257812 249.582031 319.789062 250.277344 319.640625 251.140625 C 319.5 251.945312 319.785156 252.621094 320.503906 253.164062 C 321.21875 253.710938 322.320312 254.222656 323.816406 254.699219 C 326.570312 255.574219 328.492188 256.65625 329.59375 257.953125 C 330.699219 259.242188 331.082031 260.851562 330.742188 262.785156 C 330.367188 264.925781 329.261719 266.609375 327.425781 267.832031 C 325.585938 269.050781 323.296875 269.660156 320.554688 269.660156 C 318.648438 269.660156 316.96875 269.3125 315.527344 268.613281 C 314.082031 267.910156 313.054688 266.960938 312.445312 265.746094 C 311.835938 264.53125 311.667969 263.121094 311.949219 261.519531 L 317.074219 261.519531 C 316.597656 264.261719 317.992188 265.625 321.257812 265.625 C 322.472656 265.625 323.464844 265.378906 324.230469 264.886719 C 324.996094 264.394531 325.457031 263.703125 325.613281 262.820312 " fill-opacity="1" fill-rule="nonzero"/><path fill="#da0803" d="M 353.949219 261.0625 C 353.289062 263.734375 351.9375 265.832031 349.894531 267.363281 C 347.851562 268.894531 345.375 269.660156 342.476562 269.660156 C 339.296875 269.660156 336.988281 268.589844 335.535156 266.449219 C 334.089844 264.3125 333.695312 261.375 334.347656 257.640625 L 334.613281 256.128906 C 335.027344 253.746094 335.816406 251.648438 336.972656 249.832031 C 338.132812 248.015625 339.574219 246.621094 341.304688 245.652344 C 343.035156 244.679688 344.929688 244.195312 347 244.195312 C 349.855469 244.195312 352.023438 244.964844 353.503906 246.496094 C 354.984375 248.023438 355.617188 250.179688 355.40625 252.949219 L 350.300781 252.949219 C 350.453125 251.347656 350.210938 250.183594 349.574219 249.464844 C 348.933594 248.746094 347.832031 248.386719 346.265625 248.386719 C 344.5625 248.386719 343.183594 248.996094 342.125 250.214844 C 341.0625 251.433594 340.300781 253.324219 339.828125 255.890625 L 339.5 257.761719 C 339.035156 260.441406 339.09375 262.398438 339.6875 263.632812 C 340.285156 264.867188 341.453125 265.488281 343.203125 265.488281 C 344.777344 265.488281 346.019531 265.128906 346.925781 264.410156 C 347.828125 263.6875 348.46875 262.574219 348.84375 261.0625 L 353.949219 261.0625 " fill-opacity="1" fill-rule="nonzero"/><path fill="#da0803" d="M 376.027344 269.320312 L 370.917969 269.320312 L 372.777344 258.699219 L 362.824219 258.699219 L 360.964844 269.320312 L 355.859375 269.320312 L 360.195312 244.539062 L 365.300781 244.539062 L 363.542969 254.578125 L 373.5 254.578125 L 375.257812 244.539062 L 380.359375 244.539062 L 376.027344 269.320312 " fill-opacity="1" fill-rule="nonzero"/><path fill="#da0803" d="M 397.9375 256.367188 C 398.386719 253.769531 398.269531 251.792969 397.574219 250.445312 C 396.878906 249.09375 395.671875 248.421875 393.945312 248.421875 C 392.230469 248.421875 390.796875 249.085938 389.632812 250.421875 C 388.46875 251.75 387.652344 253.707031 387.195312 256.28125 L 386.980469 257.488281 C 386.535156 260.019531 386.664062 261.980469 387.34375 263.378906 C 388.03125 264.773438 389.25 265.472656 390.996094 265.472656 C 392.710938 265.472656 394.144531 264.800781 395.296875 263.453125 C 396.453125 262.109375 397.261719 260.148438 397.722656 257.574219 Z M 402.910156 257.488281 C 402.484375 259.929688 401.679688 262.066406 400.492188 263.902344 C 399.308594 265.746094 397.828125 267.160156 396.046875 268.160156 C 394.265625 269.160156 392.339844 269.660156 390.261719 269.660156 C 388.210938 269.660156 386.464844 269.164062 385.027344 268.179688 C 383.589844 267.191406 382.585938 265.785156 382.023438 263.945312 C 381.457031 262.113281 381.378906 260.007812 381.78125 257.625 L 381.996094 256.402344 C 382.425781 253.960938 383.242188 251.816406 384.441406 249.960938 C 385.648438 248.101562 387.140625 246.679688 388.917969 245.6875 C 390.695312 244.695312 392.617188 244.195312 394.6875 244.195312 C 396.75 244.195312 398.5 244.695312 399.929688 245.6875 C 401.363281 246.679688 402.355469 248.101562 402.910156 249.960938 C 403.464844 251.816406 403.527344 253.957031 403.101562 256.382812 L 402.910156 257.488281 " fill-opacity="1" fill-rule="nonzero"/><path fill="#da0803" d="M 422 256.367188 C 422.453125 253.769531 422.332031 251.792969 421.640625 250.445312 C 420.945312 249.09375 419.738281 248.421875 418.011719 248.421875 C 416.300781 248.421875 414.863281 249.085938 413.695312 250.421875 C 412.53125 251.75 411.71875 253.707031 411.257812 256.28125 L 411.046875 257.488281 C 410.605469 260.019531 410.722656 261.980469 411.410156 263.378906 C 412.097656 264.773438 413.3125 265.472656 415.066406 265.472656 C 416.777344 265.472656 418.210938 264.800781 419.363281 263.453125 C 420.519531 262.109375 421.324219 260.148438 421.789062 257.574219 Z M 426.976562 257.488281 C 426.546875 259.929688 425.746094 262.066406 424.5625 263.902344 C 423.375 265.746094 421.894531 267.160156 420.117188 268.160156 C 418.332031 269.160156 416.40625 269.660156 414.332031 269.660156 C 412.273438 269.660156 410.53125 269.164062 409.089844 268.179688 C 407.652344 267.191406 406.652344 265.785156 406.085938 263.945312 C 405.523438 262.113281 405.441406 260.007812 405.847656 257.625 L 406.0625 256.402344 C 406.488281 253.960938 407.304688 251.816406 408.507812 249.960938 C 409.710938 248.101562 411.207031 246.679688 412.984375 245.6875 C 414.761719 244.695312 416.6875 244.195312 418.75 244.195312 C 420.816406 244.195312 422.566406 244.695312 423.996094 245.6875 C 425.429688 246.679688 426.417969 248.101562 426.976562 249.960938 C 427.53125 251.816406 427.597656 253.957031 427.171875 256.382812 L 426.976562 257.488281 " fill-opacity="1" fill-rule="nonzero"/><path fill="#da0803" d="M 434.441406 265.21875 L 445.28125 265.21875 L 444.566406 269.320312 L 428.617188 269.320312 L 432.957031 244.539062 L 438.058594 244.539062 L 434.441406 265.21875 " fill-opacity="1" fill-rule="nonzero"/><path fill="#da0803" d="M 463.828125 260.074219 L 470.027344 260.074219 L 468.535156 250.800781 Z M 470.679688 264.214844 L 461.726562 264.214844 L 459.132812 269.320312 L 453.707031 269.320312 L 467.261719 244.539062 L 471.996094 244.539062 L 476.9375 269.320312 L 471.507812 269.320312 L 470.679688 264.214844 " fill-opacity="1" fill-rule="nonzero"/><path fill="#da0803" d="M 486.609375 256.453125 L 491.167969 256.453125 C 492.519531 256.453125 493.605469 256.136719 494.425781 255.496094 C 495.246094 254.859375 495.757812 253.957031 495.964844 252.773438 C 496.175781 251.5625 495.992188 250.578125 495.40625 249.832031 C 494.824219 249.082031 493.90625 248.695312 492.648438 248.671875 L 487.96875 248.671875 Z M 485.886719 260.585938 L 484.355469 269.320312 L 479.25 269.320312 L 483.589844 244.539062 L 493.253906 244.539062 C 495.117188 244.539062 496.691406 244.878906 497.988281 245.558594 C 499.277344 246.238281 500.195312 247.203125 500.738281 248.460938 C 501.277344 249.714844 501.40625 251.140625 501.128906 252.742188 C 500.703125 255.171875 499.535156 257.082031 497.628906 258.488281 C 495.71875 259.886719 493.300781 260.585938 490.359375 260.585938 L 485.886719 260.585938 " fill-opacity="1" fill-rule="nonzero"/><path fill="#da0803" d="M 509.089844 256.453125 L 513.652344 256.453125 C 515.003906 256.453125 516.089844 256.136719 516.910156 255.496094 C 517.726562 254.859375 518.238281 253.957031 518.449219 252.773438 C 518.660156 251.5625 518.472656 250.578125 517.890625 249.832031 C 517.308594 249.082031 516.390625 248.695312 515.132812 248.671875 L 510.449219 248.671875 Z M 508.367188 260.585938 L 506.839844 269.320312 L 501.734375 269.320312 L 506.066406 244.539062 L 515.738281 244.539062 C 517.597656 244.539062 519.175781 244.878906 520.464844 245.558594 C 521.761719 246.238281 522.675781 247.203125 523.21875 248.460938 C 523.757812 249.714844 523.890625 251.140625 523.613281 252.742188 C 523.1875 255.171875 522.019531 257.082031 520.109375 258.488281 C 518.203125 259.886719 515.78125 260.585938 512.84375 260.585938 L 508.367188 260.585938 " fill-opacity="1" fill-rule="nonzero"/><path fill="#da0803" d="M 530.042969 265.21875 L 540.882812 265.21875 L 540.164062 269.320312 L 524.21875 269.320312 L 528.550781 244.539062 L 533.660156 244.539062 L 530.042969 265.21875 " fill-opacity="1" fill-rule="nonzero"/><path fill="#da0803" d="M 548.519531 269.320312 L 543.414062 269.320312 L 547.75 244.539062 L 552.855469 244.539062 L 548.519531 269.320312 " fill-opacity="1" fill-rule="nonzero"/><path fill="#da0803" d="M 574.148438 261.0625 C 573.488281 263.734375 572.136719 265.832031 570.09375 267.363281 C 568.050781 268.894531 565.574219 269.660156 562.671875 269.660156 C 559.496094 269.660156 557.179688 268.589844 555.734375 266.449219 C 554.289062 264.3125 553.894531 261.375 554.546875 257.640625 L 554.8125 256.128906 C 555.226562 253.746094 556.015625 251.648438 557.171875 249.832031 C 558.328125 248.015625 559.773438 246.621094 561.503906 245.652344 C 563.234375 244.679688 565.128906 244.195312 567.191406 244.195312 C 570.054688 244.195312 572.222656 244.964844 573.703125 246.496094 C 575.179688 248.023438 575.816406 250.179688 575.605469 252.949219 L 570.5 252.949219 C 570.652344 251.347656 570.410156 250.183594 569.769531 249.464844 C 569.128906 248.746094 568.027344 248.386719 566.464844 248.386719 C 564.761719 248.386719 563.378906 248.996094 562.324219 250.214844 C 561.261719 251.433594 560.5 253.324219 560.027344 255.890625 L 559.699219 257.761719 C 559.226562 260.441406 559.292969 262.398438 559.890625 263.632812 C 560.480469 264.867188 561.652344 265.488281 563.398438 265.488281 C 564.980469 265.488281 566.21875 265.128906 567.121094 264.410156 C 568.027344 263.6875 568.667969 262.574219 569.042969 261.0625 L 574.148438 261.0625 " fill-opacity="1" fill-rule="nonzero"/><path fill="#da0803" d="M 584.089844 260.074219 L 590.289062 260.074219 L 588.792969 250.800781 Z M 590.941406 264.214844 L 581.988281 264.214844 L 579.394531 269.320312 L 573.964844 269.320312 L 587.523438 244.539062 L 592.257812 244.539062 L 597.195312 269.320312 L 591.769531 269.320312 L 590.941406 264.214844 " fill-opacity="1" fill-rule="nonzero"/><path fill="#da0803" d="M 619.617188 248.671875 L 612.023438 248.671875 L 608.410156 269.320312 L 603.304688 269.320312 L 606.917969 248.671875 L 599.429688 248.671875 L 600.152344 244.539062 L 620.335938 244.539062 L 619.617188 248.671875 " fill-opacity="1" fill-rule="nonzero"/><path fill="#da0803" d="M 624.339844 269.320312 L 619.234375 269.320312 L 623.574219 244.539062 L 628.675781 244.539062 L 624.339844 269.320312 " fill-opacity="1" fill-rule="nonzero"/><path fill="#da0803" d="M 646.519531 256.367188 C 646.976562 253.769531 646.855469 251.792969 646.160156 250.445312 C 645.46875 249.09375 644.257812 248.421875 642.53125 248.421875 C 640.820312 248.421875 639.382812 249.085938 638.214844 250.421875 C 637.054688 251.75 636.242188 253.707031 635.777344 256.28125 L 635.566406 257.488281 C 635.125 260.019531 635.246094 261.980469 635.933594 263.378906 C 636.621094 264.773438 637.832031 265.472656 639.585938 265.472656 C 641.296875 265.472656 642.730469 264.800781 643.886719 263.453125 C 645.039062 262.109375 645.847656 260.148438 646.308594 257.574219 Z M 651.5 257.488281 C 651.070312 259.929688 650.265625 262.066406 649.082031 263.902344 C 647.898438 265.746094 646.417969 267.160156 644.636719 268.160156 C 642.855469 269.160156 640.929688 269.660156 638.851562 269.660156 C 636.796875 269.660156 635.054688 269.164062 633.609375 268.179688 C 632.171875 267.191406 631.171875 265.785156 630.605469 263.945312 C 630.046875 262.113281 629.964844 260.007812 630.371094 257.625 L 630.585938 256.402344 C 631.011719 253.960938 631.824219 251.816406 633.03125 249.960938 C 634.234375 248.101562 635.726562 246.679688 637.503906 245.6875 C 639.285156 244.695312 641.207031 244.195312 643.273438 244.195312 C 645.335938 244.195312 647.085938 244.695312 648.515625 245.6875 C 649.949219 246.679688 650.941406 248.101562 651.5 249.960938 C 652.050781 251.816406 652.117188 253.957031 651.691406 256.382812 L 651.5 257.488281 " fill-opacity="1" fill-rule="nonzero"/><path fill="#da0803" d="M 673.292969 269.320312 L 668.183594 269.320312 L 661.097656 253.015625 L 658.246094 269.320312 L 653.136719 269.320312 L 657.476562 244.539062 L 662.578125 244.539062 L 669.675781 260.878906 L 672.535156 244.539062 L 677.625 244.539062 L 673.292969 269.320312 " fill-opacity="1" fill-rule="nonzero"/><path fill="#000000" d="M 518.558594 474.992188 L 514.59375 474.992188 C 512.3125 474.992188 510.144531 474.007812 508.648438 472.292969 C 507.148438 470.574219 506.472656 468.292969 506.78125 466.035156 L 522.976562 348.476562 C 523.515625 344.59375 526.871094 341.667969 530.789062 341.667969 L 621.234375 341.667969 C 623.511719 341.667969 625.679688 342.652344 627.179688 344.371094 C 628.675781 346.089844 629.355469 348.367188 629.042969 350.625 L 628.679688 353.253906 C 628.574219 354.03125 627.859375 354.574219 627.078125 354.46875 C 626.308594 354.363281 625.761719 353.644531 625.871094 352.871094 L 626.230469 350.238281 C 626.429688 348.792969 625.992188 347.332031 625.035156 346.234375 C 624.078125 345.136719 622.691406 344.503906 621.234375 344.503906 L 530.789062 344.503906 C 528.28125 344.503906 526.128906 346.375 525.789062 348.859375 L 509.597656 466.421875 C 509.394531 467.867188 509.832031 469.328125 510.789062 470.425781 C 511.746094 471.523438 513.132812 472.15625 514.59375 472.15625 L 518.558594 472.15625 C 519.339844 472.15625 519.976562 472.789062 519.976562 473.578125 C 519.976562 474.359375 519.339844 474.992188 518.558594 474.992188 " fill-opacity="1" fill-rule="nonzero"/><path fill="#f1a071" d="M 620.875 490.027344 L 529.617188 490.027344 C 525.9375 490.027344 523.105469 486.78125 523.609375 483.136719 L 539.914062 364.773438 C 540.328125 361.773438 542.894531 359.539062 545.925781 359.539062 L 637.175781 359.539062 C 640.855469 359.539062 643.6875 362.785156 643.183594 366.429688 L 626.875 484.789062 C 626.464844 487.792969 623.898438 490.027344 620.875 490.027344 " fill-opacity="1" fill-rule="nonzero"/><path fill="#da0803" d="M 672.203125 517.566406 C 672.925781 511.894531 668.503906 506.875 662.789062 506.875 L 591.636719 506.875 C 586.863281 506.875 582.832031 510.425781 582.226562 515.160156 C 581.503906 520.832031 585.917969 525.851562 591.636719 525.851562 L 662.789062 525.851562 C 667.566406 525.851562 671.597656 522.304688 672.203125 517.566406 " fill-opacity="1" fill-rule="nonzero"/><path fill="#ffffff" d="M 188.5625 68.667969 L 135.390625 127.046875 C 134.347656 128.066406 132.984375 128.6875 131.53125 128.8125 L 52.339844 131.035156 L 25.996094 143.09375 L 20.101562 130.378906 C 19.734375 129.582031 19.8125 128.578125 20.5625 127.847656 L 96.652344 53.523438 C 97.695312 52.511719 99.054688 51.886719 100.507812 51.757812 L 206.785156 42.59375 C 207.832031 42.503906 208.648438 43.089844 209.015625 43.886719 L 214.910156 56.605469 L 188.5625 68.667969 " fill-opacity="1" fill-rule="nonzero"/><path fill="#000000" d="M 206.992188 44 C 206.964844 44 206.9375 44 206.90625 44.003906 L 100.632812 53.171875 C 99.507812 53.269531 98.449219 53.753906 97.644531 54.539062 L 21.554688 128.863281 C 21.1875 129.21875 21.316406 129.621094 21.390625 129.78125 L 26.6875 141.214844 L 51.746094 129.742188 C 51.921875 129.660156 52.109375 129.617188 52.300781 129.613281 L 131.492188 127.394531 C 132.53125 127.300781 133.59375 126.816406 134.398438 126.03125 L 187.515625 67.710938 C 187.644531 67.570312 187.800781 67.453125 187.972656 67.375 L 213.023438 55.910156 L 207.730469 44.484375 C 207.660156 44.335938 207.453125 44 206.992188 44 Z M 25.996094 144.515625 C 25.460938 144.515625 24.945312 144.210938 24.707031 143.691406 L 18.8125 130.976562 C 18.15625 129.550781 18.453125 127.925781 19.570312 126.832031 L 95.660156 52.511719 C 96.933594 51.265625 98.613281 50.5 100.386719 50.34375 L 206.664062 41.175781 C 208.222656 41.042969 209.648438 41.871094 210.304688 43.292969 L 216.199219 56.007812 C 216.355469 56.351562 216.371094 56.742188 216.242188 57.097656 C 216.109375 57.449219 215.84375 57.738281 215.5 57.898438 L 189.417969 69.835938 L 136.4375 128.003906 C 135.109375 129.304688 133.429688 130.074219 131.65625 130.226562 L 52.667969 132.441406 L 26.585938 144.386719 C 26.394531 144.472656 26.191406 144.515625 25.996094 144.515625 " fill-opacity="1" fill-rule="nonzero"/><path fill="#da0803" d="M 214.449219 59.136719 L 138.359375 133.460938 C 137.320312 134.472656 135.957031 135.097656 134.503906 135.222656 L 28.226562 144.390625 C 26.136719 144.570312 24.953125 142.027344 26.453125 140.5625 L 102.542969 66.238281 C 103.585938 65.222656 104.945312 64.601562 106.402344 64.476562 L 212.675781 55.308594 C 214.765625 55.128906 215.949219 57.671875 214.449219 59.136719 " fill-opacity="1" fill-rule="nonzero"/><path fill="#000000" d="M 214.449219 59.136719 L 214.460938 59.136719 Z M 212.886719 56.714844 C 212.855469 56.714844 212.828125 56.722656 212.796875 56.722656 L 106.523438 65.886719 C 105.398438 65.988281 104.339844 66.472656 103.535156 67.257812 L 27.445312 141.582031 C 27.082031 141.933594 27.207031 142.339844 27.28125 142.492188 C 27.355469 142.65625 27.578125 143.023438 28.105469 142.976562 L 134.378906 133.8125 C 135.503906 133.710938 136.5625 133.226562 137.367188 132.441406 L 213.457031 58.121094 C 213.820312 57.765625 213.695312 57.359375 213.621094 57.207031 C 213.554688 57.054688 213.347656 56.714844 212.886719 56.714844 Z M 28.019531 145.820312 C 26.585938 145.820312 25.308594 145.003906 24.699219 143.675781 C 24.046875 142.257812 24.347656 140.632812 25.460938 139.550781 L 101.554688 65.226562 C 102.824219 63.980469 104.503906 63.214844 106.277344 63.058594 L 212.554688 53.894531 C 214.101562 53.757812 215.546875 54.59375 216.203125 56.019531 C 216.855469 57.441406 216.554688 59.0625 215.441406 60.148438 L 139.347656 134.472656 C 138.078125 135.71875 136.398438 136.484375 134.625 136.632812 L 28.347656 145.804688 C 28.238281 145.816406 28.128906 145.820312 28.019531 145.820312 " fill-opacity="1" fill-rule="nonzero"/><path fill="#000000" d="M 214.519531 108.53125 C 213.765625 108.53125 213.136719 107.9375 213.101562 107.179688 L 210.78125 56.65625 C 210.746094 55.871094 211.347656 55.210938 212.132812 55.171875 C 212.90625 55.132812 213.582031 55.742188 213.617188 56.523438 L 215.9375 107.042969 C 215.972656 107.832031 215.367188 108.496094 214.585938 108.53125 C 214.5625 108.53125 214.542969 108.53125 214.519531 108.53125 " fill-opacity="1" fill-rule="nonzero"/><path fill="#ffffff" d="M 214.316406 103.929688 C 215.832031 103.878906 217.132812 105.011719 217.289062 106.519531 L 221.734375 149.128906 L 210.109375 149.53125 L 211.539062 106.722656 C 211.589844 105.203125 212.804688 103.980469 214.316406 103.929688 " fill-opacity="1" fill-rule="nonzero"/><path fill="#da0803" d="M 182.675781 109.625 C 182.65625 109.585938 180.011719 103.882812 179.992188 103.84375 C 167.613281 77.167969 139.429688 75.097656 112.851562 87.691406 C 112.851562 87.691406 67.160156 111.1875 83.960938 148.449219 L 101.496094 186.15625 C 103.40625 180.378906 107.3125 170.996094 115.371094 161.683594 C 123.84375 151.882812 132.71875 147 135.140625 145.722656 C 150.335938 137.695312 164.59375 137.914062 174.207031 138.066406 C 183.945312 138.210938 191.90625 139.726562 197.25 141.039062 C 196.714844 139.882812 183.210938 110.78125 182.675781 109.625 " fill-opacity="1" fill-rule="nonzero"/><path fill="#000000" d="M 142.902344 81.652344 C 133.769531 81.652344 123.707031 84.121094 113.460938 88.976562 C 113.390625 89.015625 102.152344 94.871094 93.121094 105.097656 C 81.191406 118.601562 78.546875 132.992188 85.253906 147.867188 L 101.324219 182.417969 C 104.367188 174.46875 108.722656 167.195312 114.292969 160.753906 C 122.089844 151.738281 130.285156 146.679688 134.480469 144.46875 C 149.996094 136.269531 164.574219 136.5 174.230469 136.644531 C 181.113281 136.746094 188 137.542969 194.742188 139.003906 C 191.296875 131.582031 181.835938 111.191406 181.386719 110.222656 C 181.335938 110.109375 180.691406 108.71875 180.046875 107.332031 L 178.707031 104.445312 C 174.007812 94.324219 166.847656 87.46875 157.417969 84.054688 C 152.96875 82.445312 148.085938 81.652344 142.902344 81.652344 Z M 101.496094 187.578125 C 100.945312 187.578125 100.441406 187.257812 100.207031 186.757812 L 82.675781 149.046875 C 75.550781 133.25 78.445312 117.386719 91.042969 103.15625 C 100.4375 92.550781 111.726562 86.675781 112.203125 86.433594 C 129 78.472656 145.386719 76.6875 158.382812 81.386719 C 168.550781 85.0625 176.253906 92.414062 181.28125 103.246094 C 181.285156 103.257812 181.953125 104.695312 182.621094 106.136719 L 183.960938 109.023438 C 183.960938 109.023438 183.960938 109.027344 183.960938 109.027344 C 184.5 110.1875 198.003906 139.289062 198.539062 140.441406 C 198.769531 140.941406 198.695312 141.523438 198.347656 141.945312 C 198 142.363281 197.441406 142.550781 196.910156 142.421875 C 189.476562 140.585938 181.832031 139.597656 174.1875 139.480469 C 164.820312 139.335938 150.679688 139.121094 135.804688 146.976562 C 131.789062 149.097656 123.933594 153.949219 116.441406 162.613281 C 110.355469 169.652344 105.78125 177.722656 102.84375 186.605469 C 102.660156 187.15625 102.160156 187.542969 101.578125 187.578125 C 101.550781 187.578125 101.523438 187.578125 101.496094 187.578125 " fill-opacity="1" fill-rule="nonzero"/><path fill="#6b625f" d="M 457.628906 749.085938 C 457.46875 749.996094 457.210938 750.933594 456.851562 751.875 C 456.835938 751.953125 456.824219 751.992188 456.796875 752.039062 L 456.789062 752.03125 C 456.636719 752.425781 456.472656 752.832031 456.285156 753.230469 L 432.269531 803.324219 C 428.851562 803.605469 425.4375 803.855469 422.011719 804.050781 C 411 804.714844 399.949219 804.941406 388.875 804.734375 C 386.058594 804.6875 383.246094 804.601562 380.425781 804.488281 C 371.171875 804.132812 361.917969 803.449219 352.664062 802.441406 C 341.800781 801.257812 330.949219 799.632812 320.140625 797.535156 C 319.285156 797.363281 318.414062 797.191406 317.550781 797.011719 L 314.957031 797.011719 C 314.152344 797.011719 313.464844 796.632812 313.007812 796.074219 C 313.007812 796.074219 313.007812 796.066406 312.996094 796.066406 C 309.023438 795.234375 305.046875 794.316406 301.09375 793.332031 C 300.921875 793.296875 300.75 793.246094 300.585938 793.199219 C 296.257812 792.132812 291.945312 790.976562 287.648438 789.734375 C 287.195312 789.613281 286.738281 789.480469 286.285156 789.351562 C 285.792969 789.203125 285.292969 789.054688 284.800781 788.914062 C 282.179688 788.136719 279.566406 787.332031 276.957031 786.492188 C 276.945312 786.492188 276.945312 786.492188 276.9375 786.480469 C 273.976562 785.542969 271.003906 784.5625 268.050781 783.53125 C 267.117188 783.210938 266.1875 782.875 265.25 782.542969 C 260.378906 780.804688 255.515625 778.960938 250.679688 777 C 247.878906 775.867188 245.078125 774.691406 242.285156 773.488281 C 240.542969 772.734375 238.804688 771.957031 237.074219 771.179688 C 235.160156 770.308594 233.257812 769.429688 231.359375 768.53125 C 231.140625 768.429688 230.929688 768.335938 230.714844 768.226562 C 229.871094 767.832031 229.027344 767.433594 228.199219 767.027344 C 225.066406 765.515625 221.960938 763.953125 218.894531 762.359375 C 212.585938 759.078125 206.414062 755.636719 200.394531 752.046875 L 200.007812 752.046875 C 198.882812 752.046875 197.992188 751.339844 197.660156 750.402344 C 194.257812 748.332031 190.898438 746.21875 187.585938 744.042969 C 184.78125 742.226562 182.011719 740.359375 179.285156 738.449219 C 180.261719 738.082031 181.234375 737.761719 182.226562 737.492188 C 184.6875 736.8125 187.1875 736.433594 189.609375 736.433594 L 443.199219 736.433594 L 437.371094 729.734375 C 438.082031 729.734375 438.761719 729.765625 439.414062 729.828125 C 439.574219 729.835938 439.738281 729.859375 439.90625 729.867188 C 439.941406 729.886719 440.003906 729.886719 440.035156 729.886719 C 446.320312 730.472656 461.132812 733.542969 457.628906 749.085938 " fill-opacity="1" fill-rule="nonzero"/><path fill="#f1a071" d="M 179.285156 738.449219 C 182.011719 740.359375 184.78125 742.226562 187.585938 744.042969 C 190.898438 746.21875 194.257812 748.332031 197.660156 750.402344 C 197.992188 751.339844 198.882812 752.046875 200.007812 752.046875 L 200.394531 752.046875 C 206.414062 755.636719 212.585938 759.078125 218.894531 762.359375 C 221.960938 763.953125 225.066406 765.515625 228.199219 767.027344 C 229.027344 767.433594 229.871094 767.832031 230.714844 768.226562 C 230.929688 768.335938 231.140625 768.429688 231.359375 768.53125 C 233.261719 769.429688 235.160156 770.308594 237.074219 771.179688 C 238.804688 771.957031 240.542969 772.734375 242.285156 773.488281 C 245.078125 774.691406 247.878906 775.867188 250.679688 777 C 255.515625 778.960938 260.378906 780.804688 265.25 782.542969 C 266.1875 782.875 267.117188 783.210938 268.050781 783.53125 C 271.003906 784.5625 273.976562 785.542969 276.9375 786.480469 C 276.945312 786.492188 276.945312 786.492188 276.957031 786.492188 C 279.566406 787.332031 282.179688 788.136719 284.800781 788.914062 C 285.292969 789.054688 285.792969 789.203125 286.285156 789.351562 C 286.738281 789.480469 287.195312 789.613281 287.648438 789.734375 C 291.945312 790.976562 296.257812 792.132812 300.585938 793.199219 C 300.75 793.246094 300.921875 793.296875 301.09375 793.332031 C 305.046875 794.316406 309.023438 795.234375 312.996094 796.066406 C 313.007812 796.066406 313.007812 796.074219 313.007812 796.074219 C 313.464844 796.632812 314.152344 797.011719 314.957031 797.011719 L 317.550781 797.011719 C 318.414062 797.191406 319.285156 797.363281 320.140625 797.535156 C 330.949219 799.632812 341.800781 801.257812 352.664062 802.441406 C 361.917969 803.449219 371.171875 804.132812 380.425781 804.488281 C 383.246094 804.601562 386.058594 804.6875 388.875 804.734375 C 399.949219 804.941406 411 804.714844 422.011719 804.050781 L 449.59375 746.53125 C 453.664062 738.035156 449.398438 731.007812 440.035156 729.886719 C 440.003906 729.886719 439.941406 729.886719 439.90625 729.867188 C 439.738281 729.859375 439.574219 729.835938 439.414062 729.828125 C 438.761719 729.765625 438.082031 729.734375 437.371094 729.734375 L 182.921875 729.734375 C 178.945312 729.734375 174.78125 730.730469 170.882812 732.449219 C 172.046875 733.316406 173.222656 734.164062 174.40625 735.015625 C 175.566406 735.847656 176.730469 736.683594 177.90625 737.492188 L 179.285156 738.449219 " fill-opacity="1" fill-rule="nonzero"/><path fill="#da0803" d="M 177.90625 737.492188 L 186.714844 737.492188 C 188.539062 737.492188 189.753906 739.394531 188.976562 741.054688 L 187.585938 744.042969 C 184.78125 742.226562 182.011719 740.359375 179.285156 738.449219 L 177.90625 737.492188 " fill-opacity="1" fill-rule="nonzero"/><path fill="#da0803" d="M 215.753906 741.054688 L 211.304688 750.601562 C 210.890625 751.480469 210.011719 752.046875 209.035156 752.046875 L 200.007812 752.046875 C 198.882812 752.046875 197.992188 751.339844 197.660156 750.402344 C 197.433594 749.808594 197.433594 749.125 197.738281 748.480469 L 202.195312 738.941406 C 202.601562 738.050781 203.492188 737.492188 204.457031 737.492188 L 213.492188 737.492188 C 215.320312 737.492188 216.53125 739.394531 215.753906 741.054688 " fill-opacity="1" fill-rule="nonzero"/><path fill="#da0803" d="M 235.816406 752.046875 L 226.789062 752.046875 C 224.957031 752.046875 223.746094 750.144531 224.519531 748.484375 L 228.96875 738.941406 C 229.382812 738.058594 230.265625 737.492188 231.238281 737.492188 L 240.269531 737.492188 C 242.097656 737.492188 243.308594 739.394531 242.535156 741.054688 L 238.085938 750.601562 C 237.675781 751.484375 236.789062 752.046875 235.816406 752.046875 " fill-opacity="1" fill-rule="nonzero"/><path fill="#da0803" d="M 262.59375 752.046875 L 253.566406 752.046875 C 251.734375 752.046875 250.523438 750.144531 251.296875 748.484375 L 255.75 738.941406 C 256.160156 738.058594 257.042969 737.492188 258.015625 737.492188 L 267.046875 737.492188 C 268.878906 737.492188 270.085938 739.394531 269.316406 741.054688 L 264.863281 750.601562 C 264.453125 751.484375 263.566406 752.046875 262.59375 752.046875 " fill-opacity="1" fill-rule="nonzero"/><path fill="#da0803" d="M 289.375 752.046875 L 280.34375 752.046875 C 278.511719 752.046875 277.300781 750.144531 278.074219 748.484375 L 282.527344 738.941406 C 282.9375 738.058594 283.824219 737.492188 284.796875 737.492188 L 293.824219 737.492188 C 295.65625 737.492188 296.867188 739.394531 296.09375 741.054688 L 291.640625 750.601562 C 291.230469 751.484375 290.34375 752.046875 289.375 752.046875 " fill-opacity="1" fill-rule="nonzero"/><path fill="#da0803" d="M 316.152344 752.046875 L 307.125 752.046875 C 305.292969 752.046875 304.082031 750.144531 304.855469 748.484375 L 309.304688 738.941406 C 309.714844 738.058594 310.601562 737.492188 311.574219 737.492188 L 320.601562 737.492188 C 322.433594 737.492188 323.644531 739.394531 322.871094 741.054688 L 318.421875 750.601562 C 318.007812 751.484375 317.125 752.046875 316.152344 752.046875 " fill-opacity="1" fill-rule="nonzero"/><path fill="#da0803" d="M 342.929688 752.046875 L 333.902344 752.046875 C 332.070312 752.046875 330.859375 750.144531 331.632812 748.484375 L 336.085938 738.941406 C 336.496094 738.058594 337.382812 737.492188 338.355469 737.492188 L 347.378906 737.492188 C 349.214844 737.492188 350.421875 739.394531 349.652344 741.054688 L 345.199219 750.601562 C 344.789062 751.484375 343.902344 752.046875 342.929688 752.046875 " fill-opacity="1" fill-rule="nonzero"/><path fill="#da0803" d="M 369.710938 752.046875 L 360.679688 752.046875 C 358.847656 752.046875 357.636719 750.144531 358.410156 748.484375 L 362.863281 738.941406 C 363.273438 738.058594 364.160156 737.492188 365.128906 737.492188 L 374.160156 737.492188 C 375.992188 737.492188 377.203125 739.394531 376.429688 741.054688 L 371.976562 750.601562 C 371.566406 751.484375 370.679688 752.046875 369.710938 752.046875 " fill-opacity="1" fill-rule="nonzero"/><path fill="#da0803" d="M 396.484375 752.046875 L 387.460938 752.046875 C 385.628906 752.046875 384.417969 750.144531 385.1875 748.484375 L 389.640625 738.941406 C 390.050781 738.058594 390.9375 737.492188 391.910156 737.492188 L 400.941406 737.492188 C 402.769531 737.492188 403.984375 739.394531 403.207031 741.054688 L 398.757812 750.601562 C 398.34375 751.484375 397.457031 752.046875 396.484375 752.046875 " fill-opacity="1" fill-rule="nonzero"/><path fill="#da0803" d="M 423.265625 752.046875 L 414.238281 752.046875 C 412.40625 752.046875 411.191406 750.144531 411.96875 748.484375 L 416.421875 738.941406 C 416.832031 738.058594 417.714844 737.492188 418.691406 737.492188 L 427.714844 737.492188 C 429.546875 737.492188 430.757812 739.394531 429.988281 741.054688 L 425.535156 750.601562 C 425.125 751.484375 424.238281 752.046875 423.265625 752.046875 " fill-opacity="1" fill-rule="nonzero"/><path fill="#6b625f" d="M 233.285156 762.695312 L 230.714844 768.226562 C 229.871094 767.832031 229.027344 767.433594 228.199219 767.027344 C 225.066406 765.515625 221.960938 763.953125 218.894531 762.359375 L 219.726562 760.582031 C 220.136719 759.703125 221.015625 759.136719 221.988281 759.136719 L 231.015625 759.136719 C 232.851562 759.136719 234.0625 761.039062 233.285156 762.695312 " fill-opacity="1" fill-rule="nonzero"/><path fill="#6b625f" d="M 253.347656 773.6875 L 244.320312 773.6875 C 242.488281 773.6875 241.277344 771.785156 242.050781 770.128906 L 246.503906 760.578125 C 246.914062 759.699219 247.796875 759.132812 248.769531 759.132812 L 257.800781 759.132812 C 259.628906 759.132812 260.84375 761.039062 260.066406 762.695312 L 255.617188 772.246094 C 255.207031 773.125 254.320312 773.6875 253.347656 773.6875 " fill-opacity="1" fill-rule="nonzero"/><path fill="#6b625f" d="M 280.125 773.6875 L 271.097656 773.6875 C 269.269531 773.6875 268.054688 771.785156 268.828125 770.128906 L 273.28125 760.578125 C 273.691406 759.699219 274.578125 759.132812 275.550781 759.132812 L 284.578125 759.132812 C 286.410156 759.132812 287.621094 761.039062 286.847656 762.695312 L 282.394531 772.246094 C 281.984375 773.125 281.101562 773.6875 280.125 773.6875 " fill-opacity="1" fill-rule="nonzero"/><path fill="#6b625f" d="M 306.90625 773.6875 L 297.878906 773.6875 C 296.046875 773.6875 294.832031 771.785156 295.609375 770.128906 L 300.058594 760.578125 C 300.46875 759.699219 301.355469 759.132812 302.328125 759.132812 L 311.355469 759.132812 C 313.1875 759.132812 314.398438 761.039062 313.625 762.695312 L 309.175781 772.246094 C 308.765625 773.125 307.875 773.6875 306.90625 773.6875 " fill-opacity="1" fill-rule="nonzero"/><path fill="#6b625f" d="M 333.6875 773.6875 L 324.65625 773.6875 C 322.824219 773.6875 321.613281 771.785156 322.386719 770.128906 L 326.835938 760.578125 C 327.25 759.699219 328.132812 759.132812 329.105469 759.132812 L 338.136719 759.132812 C 339.964844 759.132812 341.179688 761.039062 340.402344 762.695312 L 335.953125 772.246094 C 335.539062 773.125 334.65625 773.6875 333.6875 773.6875 " fill-opacity="1" fill-rule="nonzero"/><path fill="#6b625f" d="M 360.460938 773.6875 L 351.4375 773.6875 C 349.605469 773.6875 348.394531 771.785156 349.167969 770.128906 L 353.617188 760.578125 C 354.027344 759.699219 354.914062 759.132812 355.886719 759.132812 L 364.910156 759.132812 C 366.746094 759.132812 367.953125 761.039062 367.183594 762.695312 L 362.730469 772.246094 C 362.320312 773.125 361.4375 773.6875 360.460938 773.6875 " fill-opacity="1" fill-rule="nonzero"/><path fill="#6b625f" d="M 387.242188 773.6875 L 378.210938 773.6875 C 376.382812 773.6875 375.167969 771.785156 375.945312 770.128906 L 380.394531 760.578125 C 380.808594 759.699219 381.691406 759.132812 382.667969 759.132812 L 391.691406 759.132812 C 393.523438 759.132812 394.734375 761.039062 393.960938 762.695312 L 389.511719 772.246094 C 389.101562 773.125 388.214844 773.6875 387.242188 773.6875 " fill-opacity="1" fill-rule="nonzero"/><path fill="#6b625f" d="M 414.023438 773.6875 L 404.992188 773.6875 C 403.160156 773.6875 401.949219 771.785156 402.722656 770.128906 L 407.175781 760.578125 C 407.585938 759.699219 408.472656 759.132812 409.441406 759.132812 L 418.472656 759.132812 C 420.304688 759.132812 421.515625 761.039062 420.742188 762.695312 L 416.285156 772.246094 C 415.878906 773.125 414.992188 773.6875 414.023438 773.6875 " fill-opacity="1" fill-rule="nonzero"/><path fill="#6b625f" d="M 277.15625 786.015625 L 276.9375 786.480469 C 273.976562 785.542969 271.003906 784.5625 268.050781 783.53125 C 267.117188 783.210938 266.1875 782.875 265.25 782.542969 C 265.449219 782.488281 265.648438 782.457031 265.855469 782.457031 L 274.882812 782.457031 C 276.710938 782.457031 277.921875 784.363281 277.15625 786.015625 " fill-opacity="1" fill-rule="nonzero"/><path fill="#6b625f" d="M 303.929688 786.015625 L 300.585938 793.199219 C 296.257812 792.132812 291.945312 790.976562 287.648438 789.734375 L 290.363281 783.910156 C 290.769531 783.027344 291.660156 782.457031 292.632812 782.457031 L 301.660156 782.457031 C 303.492188 782.457031 304.710938 784.363281 303.929688 786.015625 " fill-opacity="1" fill-rule="nonzero"/><path fill="#6b625f" d="M 330.710938 786.015625 L 326.253906 795.566406 C 325.847656 796.445312 324.957031 797.011719 323.992188 797.011719 L 314.957031 797.011719 C 314.152344 797.011719 313.464844 796.632812 313.007812 796.074219 C 313.007812 796.074219 313.007812 796.066406 312.996094 796.066406 C 312.449219 795.367188 312.269531 794.371094 312.695312 793.453125 L 317.140625 783.910156 C 317.558594 783.027344 318.4375 782.457031 319.410156 782.457031 L 328.441406 782.457031 C 330.265625 782.457031 331.488281 784.363281 330.710938 786.015625 " fill-opacity="1" fill-rule="nonzero"/><path fill="#6b625f" d="M 350.765625 797.015625 L 341.742188 797.015625 C 339.910156 797.015625 338.699219 795.109375 339.472656 793.453125 L 343.921875 783.902344 C 344.332031 783.023438 345.21875 782.460938 346.191406 782.460938 L 355.214844 782.460938 C 357.050781 782.460938 358.257812 784.363281 357.488281 786.023438 L 353.035156 795.566406 C 352.625 796.449219 351.742188 797.015625 350.765625 797.015625 " fill-opacity="1" fill-rule="nonzero"/><path fill="#6b625f" d="M 377.546875 797.015625 L 368.515625 797.015625 C 366.6875 797.015625 365.472656 795.109375 366.25 793.453125 L 370.703125 783.902344 C 371.113281 783.023438 371.996094 782.460938 372.96875 782.460938 L 381.996094 782.460938 C 383.828125 782.460938 385.039062 784.363281 384.265625 786.023438 L 379.816406 795.566406 C 379.40625 796.449219 378.519531 797.015625 377.546875 797.015625 " fill-opacity="1" fill-rule="nonzero"/><path fill="#6b625f" d="M 404.324219 797.015625 L 395.296875 797.015625 C 393.464844 797.015625 392.253906 795.109375 393.027344 793.453125 L 397.480469 783.902344 C 397.886719 783.023438 398.773438 782.460938 399.746094 782.460938 L 408.777344 782.460938 C 410.609375 782.460938 411.820312 784.363281 411.046875 786.023438 L 406.59375 795.566406 C 406.183594 796.449219 405.296875 797.015625 404.324219 797.015625 " fill-opacity="1" fill-rule="nonzero"/><path fill="#6b625f" d="M 389.867188 802.609375 L 388.875 804.734375 C 386.058594 804.6875 383.246094 804.601562 380.425781 804.488281 L 381.933594 801.257812 C 382.195312 800.691406 382.75 800.347656 383.378906 800.347656 L 388.429688 800.347656 C 389.59375 800.347656 390.371094 801.554688 389.867188 802.609375 " fill-opacity="1" fill-rule="nonzero"/><path fill="#f1a071" d="M 490.027344 728.488281 C 489.835938 728.46875 489.644531 728.449219 489.449219 728.433594 C 489.511719 728.4375 489.570312 728.441406 489.632812 728.449219 C 489.765625 728.460938 489.898438 728.472656 490.027344 728.488281 " fill-opacity="1" fill-rule="nonzero"/><path fill="#f1a071" d="M 492.085938 728.820312 C 491.894531 728.777344 491.699219 728.738281 491.496094 728.707031 C 491.542969 728.714844 491.582031 728.722656 491.621094 728.726562 C 491.777344 728.757812 491.933594 728.792969 492.085938 728.820312 " fill-opacity="1" fill-rule="nonzero"/><path fill="#f1a071" d="M 493.496094 729.183594 C 493.464844 729.175781 493.429688 729.164062 493.398438 729.15625 C 493.511719 729.191406 493.625 729.222656 493.738281 729.261719 C 493.65625 729.238281 493.574219 729.210938 493.496094 729.183594 " fill-opacity="1" fill-rule="nonzero"/><path fill="#f1a071" d="M 494.082031 729.375 L 493.992188 729.34375 C 494.117188 729.386719 494.246094 729.429688 494.371094 729.476562 C 494.277344 729.445312 494.175781 729.410156 494.082031 729.375 " fill-opacity="1" fill-rule="nonzero"/><path fill="#f1a071" d="M 488.167969 728.363281 C 488.0625 728.355469 487.957031 728.355469 487.855469 728.355469 C 487.902344 728.355469 487.953125 728.355469 488 728.355469 C 488.054688 728.355469 488.109375 728.355469 488.167969 728.363281 " fill-opacity="1" fill-rule="nonzero"/><path fill="#f1a071" d="M 490.871094 728.597656 C 490.738281 728.578125 490.605469 728.558594 490.472656 728.542969 C 490.601562 728.558594 490.726562 728.578125 490.855469 728.59375 C 490.859375 728.597656 490.867188 728.597656 490.871094 728.597656 " fill-opacity="1" fill-rule="nonzero"/><path fill="#f1a071" d="M 504.238281 743.976562 L 504.238281 743.960938 C 504.226562 743.765625 504.210938 743.570312 504.1875 743.378906 C 504.183594 743.339844 504.183594 743.304688 504.179688 743.269531 C 504.15625 743.0625 504.132812 742.855469 504.105469 742.648438 C 504.082031 742.429688 504.050781 742.21875 504.015625 742.011719 C 503.988281 741.804688 503.953125 741.601562 503.914062 741.398438 C 503.914062 741.386719 503.910156 741.378906 503.910156 741.367188 C 503.875 741.199219 503.84375 741.027344 503.804688 740.863281 C 503.796875 740.808594 503.785156 740.75 503.773438 740.695312 C 503.738281 740.535156 503.699219 740.375 503.660156 740.214844 C 503.65625 740.1875 503.644531 740.152344 503.636719 740.117188 C 503.589844 739.941406 503.542969 739.769531 503.496094 739.597656 C 503.453125 739.445312 503.410156 739.289062 503.363281 739.136719 C 503.347656 739.074219 503.328125 739.015625 503.308594 738.953125 C 503.246094 738.761719 503.179688 738.5625 503.113281 738.375 C 503.074219 738.257812 503.023438 738.140625 502.984375 738.03125 C 502.960938 737.976562 502.9375 737.917969 502.917969 737.863281 C 502.871094 737.734375 502.820312 737.609375 502.769531 737.492188 C 502.753906 737.453125 502.738281 737.417969 502.722656 737.382812 C 502.664062 737.242188 502.601562 737.101562 502.535156 736.960938 C 502.511719 736.910156 502.488281 736.859375 502.464844 736.808594 C 502.425781 736.726562 502.386719 736.644531 502.34375 736.566406 C 502.3125 736.496094 502.273438 736.421875 502.234375 736.347656 C 502.15625 736.191406 502.074219 736.039062 501.988281 735.882812 C 501.929688 735.78125 501.871094 735.679688 501.8125 735.582031 C 501.765625 735.503906 501.726562 735.429688 501.679688 735.363281 C 501.539062 735.128906 501.390625 734.90625 501.238281 734.6875 C 501.1875 734.617188 501.132812 734.539062 501.082031 734.464844 C 501.050781 734.421875 501.015625 734.375 500.984375 734.332031 C 500.929688 734.261719 500.878906 734.191406 500.828125 734.125 C 500.667969 733.914062 500.5 733.71875 500.332031 733.519531 C 500.265625 733.445312 500.195312 733.367188 500.132812 733.289062 C 499.914062 733.046875 499.691406 732.816406 499.453125 732.597656 C 499.359375 732.503906 499.261719 732.410156 499.160156 732.320312 C 499.152344 732.320312 499.152344 732.3125 499.152344 732.308594 C 499.042969 732.214844 498.9375 732.121094 498.828125 732.027344 C 498.789062 731.996094 498.75 731.964844 498.710938 731.933594 C 498.628906 731.863281 498.546875 731.796875 498.460938 731.726562 C 498.417969 731.695312 498.371094 731.65625 498.332031 731.628906 C 498.25 731.566406 498.171875 731.507812 498.089844 731.445312 C 497.945312 731.339844 497.792969 731.230469 497.640625 731.132812 C 497.589844 731.09375 497.535156 731.0625 497.480469 731.027344 C 497.386719 730.960938 497.292969 730.902344 497.199219 730.839844 C 497.164062 730.820312 497.128906 730.800781 497.09375 730.777344 C 496.96875 730.699219 496.84375 730.628906 496.714844 730.558594 C 496.703125 730.550781 496.695312 730.546875 496.6875 730.539062 C 496.546875 730.464844 496.410156 730.386719 496.269531 730.316406 C 496.265625 730.308594 496.261719 730.308594 496.253906 730.304688 C 496.117188 730.234375 495.96875 730.160156 495.828125 730.089844 C 495.820312 730.085938 495.816406 730.082031 495.804688 730.078125 C 495.789062 730.074219 495.773438 730.066406 495.757812 730.058594 C 495.742188 730.046875 495.726562 730.039062 495.707031 730.035156 C 495.589844 729.976562 495.472656 729.925781 495.347656 729.871094 C 495.3125 729.855469 495.273438 729.835938 495.242188 729.820312 C 495.226562 729.816406 495.21875 729.8125 495.207031 729.808594 C 495.117188 729.769531 495.027344 729.730469 494.929688 729.691406 C 494.835938 729.65625 494.746094 729.621094 494.652344 729.585938 C 494.558594 729.546875 494.464844 729.511719 494.371094 729.476562 C 494.277344 729.445312 494.175781 729.410156 494.082031 729.375 L 493.992188 729.34375 C 493.988281 729.34375 493.980469 729.339844 493.980469 729.339844 C 493.898438 729.316406 493.820312 729.289062 493.738281 729.261719 C 493.65625 729.238281 493.574219 729.210938 493.496094 729.183594 C 493.464844 729.175781 493.429688 729.164062 493.398438 729.15625 C 493.207031 729.101562 493.011719 729.046875 492.820312 728.996094 C 492.734375 728.976562 492.648438 728.953125 492.566406 728.933594 C 492.453125 728.90625 492.34375 728.878906 492.230469 728.855469 C 492.183594 728.839844 492.132812 728.832031 492.085938 728.820312 C 491.933594 728.792969 491.777344 728.757812 491.621094 728.726562 C 491.582031 728.722656 491.542969 728.714844 491.496094 728.707031 C 491.488281 728.699219 491.480469 728.699219 491.472656 728.699219 C 491.273438 728.664062 491.074219 728.628906 490.871094 728.597656 C 490.808594 728.589844 490.738281 728.582031 490.667969 728.570312 C 490.605469 728.558594 490.539062 728.550781 490.472656 728.542969 C 490.402344 728.535156 490.335938 728.523438 490.265625 728.515625 C 490.207031 728.507812 490.144531 728.503906 490.085938 728.496094 C 490.070312 728.492188 490.046875 728.492188 490.027344 728.488281 C 489.898438 728.472656 489.765625 728.460938 489.632812 728.449219 C 489.570312 728.441406 489.511719 728.4375 489.449219 728.433594 C 489.246094 728.417969 489.035156 728.402344 488.824219 728.386719 C 488.667969 728.378906 488.515625 728.375 488.359375 728.367188 C 488.300781 728.367188 488.246094 728.367188 488.183594 728.363281 C 488.175781 728.363281 488.171875 728.363281 488.167969 728.363281 C 488.0625 728.355469 487.957031 728.355469 487.855469 728.355469 C 487.792969 728.355469 487.738281 728.355469 487.679688 728.355469 C 487.625 728.355469 487.566406 728.355469 487.515625 728.355469 C 487.46875 728.355469 487.421875 728.355469 487.378906 728.355469 C 487.328125 728.355469 487.289062 728.355469 487.246094 728.355469 C 487.234375 728.355469 487.214844 728.355469 487.203125 728.355469 C 487.050781 728.355469 486.90625 728.363281 486.753906 728.367188 C 486.738281 728.367188 486.714844 728.367188 486.699219 728.367188 C 486.6875 728.367188 486.675781 728.367188 486.660156 728.367188 C 486.546875 728.371094 486.433594 728.378906 486.324219 728.382812 C 486.238281 728.386719 486.148438 728.390625 486.0625 728.394531 L 486.054688 728.402344 C 486.003906 728.402344 485.953125 728.402344 485.902344 728.410156 C 485.886719 728.414062 485.875 728.410156 485.863281 728.414062 C 485.785156 728.417969 485.703125 728.421875 485.625 728.429688 C 485.53125 728.433594 485.441406 728.441406 485.351562 728.457031 C 485.34375 728.457031 485.335938 728.457031 485.328125 728.457031 C 485.300781 728.457031 485.28125 728.460938 485.253906 728.460938 C 485.226562 728.464844 485.203125 728.464844 485.179688 728.46875 C 485.132812 728.472656 485.089844 728.476562 485.042969 728.488281 C 484.90625 728.5 484.765625 728.515625 484.628906 728.535156 L 484.578125 728.539062 L 484.574219 728.539062 C 484.414062 728.558594 484.25 728.585938 484.085938 728.609375 C 484.03125 728.617188 483.980469 728.625 483.921875 728.632812 C 483.902344 728.636719 483.875 728.640625 483.855469 728.644531 L 483.839844 728.648438 C 483.691406 728.671875 483.546875 728.695312 483.398438 728.722656 C 483.273438 728.746094 483.144531 728.769531 483.019531 728.792969 C 482.984375 728.800781 482.949219 728.808594 482.914062 728.816406 C 482.8125 728.839844 482.707031 728.859375 482.609375 728.878906 C 482.570312 728.890625 482.539062 728.898438 482.507812 728.902344 C 482.378906 728.933594 482.253906 728.960938 482.128906 728.992188 C 482.109375 728.996094 482.09375 729 482.082031 729 C 481.957031 729.03125 481.832031 729.066406 481.707031 729.09375 C 481.6875 729.105469 481.664062 729.109375 481.644531 729.117188 C 481.542969 729.144531 481.433594 729.167969 481.332031 729.199219 C 481.273438 729.214844 481.214844 729.230469 481.160156 729.25 C 481.046875 729.28125 480.929688 729.316406 480.820312 729.351562 C 480.679688 729.390625 480.539062 729.4375 480.394531 729.484375 C 480.269531 729.523438 480.136719 729.566406 480.015625 729.613281 C 479.988281 729.621094 479.960938 729.632812 479.9375 729.640625 C 479.824219 729.679688 479.710938 729.722656 479.601562 729.761719 C 479.566406 729.773438 479.535156 729.789062 479.503906 729.800781 C 479.382812 729.84375 479.261719 729.890625 479.140625 729.9375 C 478.871094 730.042969 478.605469 730.15625 478.339844 730.273438 C 478.324219 730.28125 478.304688 730.289062 478.289062 730.292969 C 478.164062 730.347656 478.039062 730.410156 477.914062 730.464844 C 477.78125 730.523438 477.652344 730.589844 477.523438 730.648438 C 477.511719 730.65625 477.496094 730.664062 477.488281 730.664062 C 477.363281 730.730469 477.234375 730.792969 477.109375 730.859375 C 476.984375 730.925781 476.859375 730.988281 476.734375 731.054688 C 476.707031 731.070312 476.683594 731.082031 476.660156 731.09375 C 476.546875 731.15625 476.429688 731.21875 476.316406 731.285156 C 476.167969 731.371094 476.023438 731.453125 475.878906 731.542969 C 475.765625 731.605469 475.648438 731.679688 475.539062 731.75 C 475.414062 731.828125 475.28125 731.90625 475.15625 731.988281 C 474.859375 732.179688 474.566406 732.378906 474.277344 732.589844 C 474.074219 732.734375 473.867188 732.886719 473.671875 733.035156 C 473.050781 733.507812 472.457031 734.011719 471.875 734.554688 C 471.761719 734.664062 471.648438 734.769531 471.53125 734.878906 C 471.421875 734.992188 471.304688 735.101562 471.195312 735.214844 C 471.132812 735.277344 471.070312 735.34375 471.011719 735.410156 C 470.9375 735.476562 470.867188 735.550781 470.796875 735.621094 C 470.6875 735.742188 470.574219 735.863281 470.464844 735.988281 C 470.359375 736.105469 470.253906 736.226562 470.152344 736.34375 C 470.0625 736.441406 469.976562 736.542969 469.890625 736.644531 C 469.8125 736.734375 469.734375 736.828125 469.65625 736.921875 C 469.414062 737.21875 469.167969 737.523438 468.9375 737.835938 C 468.859375 737.941406 468.78125 738.039062 468.710938 738.148438 C 468.628906 738.253906 468.550781 738.363281 468.472656 738.472656 C 468.421875 738.542969 468.375 738.609375 468.328125 738.679688 C 468.246094 738.800781 468.164062 738.917969 468.082031 739.039062 C 468 739.164062 467.914062 739.292969 467.832031 739.421875 C 467.714844 739.601562 467.597656 739.785156 467.484375 739.972656 C 467.410156 740.09375 467.332031 740.226562 467.253906 740.351562 C 467.171875 740.488281 467.089844 740.632812 467.011719 740.769531 C 466.992188 740.804688 466.972656 740.839844 466.953125 740.871094 C 466.894531 740.976562 466.835938 741.078125 466.777344 741.183594 C 466.742188 741.246094 466.710938 741.304688 466.679688 741.371094 C 466.621094 741.476562 466.558594 741.589844 466.503906 741.699219 C 466.488281 741.730469 466.46875 741.761719 466.457031 741.789062 C 466.378906 741.929688 466.304688 742.078125 466.230469 742.226562 C 466.167969 742.351562 466.105469 742.484375 466.039062 742.617188 C 465.996094 742.703125 465.953125 742.792969 465.914062 742.878906 C 465.863281 742.984375 465.816406 743.085938 465.769531 743.183594 C 465.757812 743.214844 465.738281 743.246094 465.730469 743.277344 C 465.675781 743.398438 465.617188 743.527344 465.5625 743.652344 C 465.53125 743.714844 465.503906 743.777344 465.476562 743.84375 C 465.421875 743.976562 465.367188 744.105469 465.308594 744.242188 C 465.238281 744.410156 465.167969 744.574219 465.101562 744.746094 C 465.09375 744.773438 465.082031 744.792969 465.074219 744.816406 C 465.011719 744.980469 464.945312 745.136719 464.886719 745.300781 C 464.816406 745.480469 464.75 745.660156 464.683594 745.84375 C 464.582031 746.128906 464.480469 746.421875 464.382812 746.710938 C 464.359375 746.792969 464.328125 746.875 464.300781 746.960938 C 464.242188 747.148438 464.183594 747.339844 464.121094 747.53125 C 464.0625 747.726562 464.007812 747.917969 463.945312 748.113281 C 463.890625 748.308594 463.839844 748.503906 463.78125 748.703125 C 463.675781 749.09375 463.570312 749.488281 463.472656 749.890625 C 463.421875 750.105469 463.375 750.320312 463.328125 750.527344 C 459.816406 766.105469 465.074219 780.21875 475.527344 782.21875 C 486.558594 784.332031 499.171875 772.316406 503.167969 755.171875 C 503.472656 753.867188 503.71875 752.605469 503.894531 751.390625 C 504.261719 748.957031 504.378906 746.710938 504.28125 744.648438 C 504.269531 744.425781 504.257812 744.199219 504.238281 743.976562 " fill-opacity="1" fill-rule="nonzero"/><path fill="#da0803" d="M 479.660156 757.136719 C 479.546875 757.136719 479.429688 757.125 479.3125 757.09375 C 478.554688 756.90625 478.089844 756.132812 478.277344 755.371094 L 482.980469 736.644531 C 483.171875 735.882812 483.941406 735.421875 484.703125 735.613281 C 485.464844 735.804688 485.921875 736.578125 485.734375 737.335938 L 481.035156 756.066406 C 480.871094 756.707031 480.296875 757.136719 479.660156 757.136719 " fill-opacity="1" fill-rule="nonzero"/><path fill="#000000" d="M 352.75 333.921875 C 353.421875 325.9375 353.707031 308.972656 344.238281 291.695312 C 334.042969 273.082031 310.390625 250.1875 280.765625 254.207031 C 263.082031 256.605469 241.140625 268.882812 235.21875 291.816406 C 229.511719 313.914062 242.214844 332.199219 244.261719 335.046875 C 233.089844 335.5 229.292969 339.34375 227.820312 341.65625 C 221.117188 352.179688 234.484375 374.957031 251.023438 385.675781 C 274.691406 401.019531 311.761719 396.132812 333.566406 374.328125 C 348.195312 359.699219 351.714844 341.671875 352.75 333.921875 " fill-opacity="1" fill-rule="nonzero"/><path fill="#000000" d="M 230.746094 325.835938 C 231.121094 319.046875 231.621094 294.886719 214.605469 278.113281 C 210.40625 273.972656 197.472656 261.230469 184.394531 265.507812 C 176.203125 268.191406 172.089844 276.191406 170.667969 279.375 C 169.058594 277.113281 164.8125 271.832031 158.21875 270.859375 C 147.539062 269.292969 138.296875 280.152344 135.019531 288.710938 C 129.730469 302.511719 135.070312 323.082031 148.105469 326.1875 C 159.660156 328.941406 170.6875 316.402344 171.257812 315.734375 C 171.058594 316.664062 168.914062 327.347656 175.46875 333.324219 C 182.347656 339.59375 193.480469 335.855469 195.695312 335.109375 C 204.515625 332.144531 205.570312 326.726562 213.542969 324.402344 C 220.207031 322.460938 226.566406 324.183594 230.746094 325.835938 " fill-opacity="1" fill-rule="nonzero"/><path fill="#ffffff" d="M 350.078125 305.855469 C 350.078125 305.855469 335.792969 314.886719 333.113281 343.441406 C 331.335938 362.488281 303.714844 353.367188 303.714844 353.367188 C 303.714844 353.367188 288.5 345.816406 289.546875 362.132812 C 290.589844 378.441406 309.492188 370.535156 309.492188 370.535156 L 261.730469 456.050781 L 318.199219 486.277344 L 337.417969 397.492188 C 342.707031 399.421875 347.28125 400.207031 351.019531 400.394531 C 357.84375 400.734375 363.984375 396.433594 366.21875 389.96875 C 380.867188 347.519531 350.078125 305.855469 350.078125 305.855469 " fill-opacity="1" fill-rule="nonzero"/><path fill="#000000" d="M 263.671875 455.476562 L 317.207031 484.132812 L 336.03125 397.195312 C 336.113281 396.789062 336.371094 396.445312 336.730469 396.25 C 337.089844 396.050781 337.511719 396.015625 337.902344 396.160156 C 342.453125 397.820312 346.890625 398.769531 351.089844 398.980469 C 357.152344 399.28125 362.847656 395.386719 364.871094 389.511719 C 377.765625 352.160156 354.523438 314.933594 349.757812 307.882812 C 346.46875 310.660156 336.667969 320.730469 334.53125 343.574219 C 334.085938 348.328125 332.101562 351.890625 328.628906 354.160156 C 319.660156 360.027344 303.929688 354.933594 303.265625 354.714844 C 303.207031 354.691406 303.140625 354.667969 303.082031 354.636719 C 301.351562 353.78125 296.234375 351.988281 293.375 353.894531 C 291.507812 355.140625 290.695312 357.882812 290.960938 362.035156 C 291.199219 365.742188 292.453125 368.324219 294.6875 369.710938 C 299.898438 372.945312 308.855469 369.257812 308.945312 369.222656 C 309.5 368.988281 310.144531 369.132812 310.550781 369.585938 C 310.953125 370.039062 311.027344 370.695312 310.730469 371.222656 Z M 318.199219 487.691406 C 317.964844 487.691406 317.734375 487.636719 317.527344 487.523438 L 261.058594 457.296875 C 260.726562 457.117188 260.476562 456.8125 260.367188 456.449219 C 260.261719 456.078125 260.304688 455.6875 260.492188 455.355469 L 306.496094 372.992188 C 302.902344 373.921875 297.320312 374.683594 293.195312 372.125 C 290.132812 370.226562 288.429688 366.890625 288.128906 362.21875 C 287.792969 356.972656 289.03125 353.375 291.808594 351.53125 C 296.375 348.492188 303.277344 351.585938 304.242188 352.046875 C 305.457031 352.425781 319.5625 356.707031 327.082031 351.78125 C 329.828125 349.984375 331.339844 347.214844 331.703125 343.308594 C 334.410156 314.390625 348.710938 305.039062 349.316406 304.65625 C 349.941406 304.257812 350.777344 304.414062 351.214844 305.007812 C 351.53125 305.433594 382.285156 347.765625 367.558594 390.433594 C 365.117188 397.503906 358.289062 402.183594 350.945312 401.8125 C 346.941406 401.609375 342.75 400.789062 338.460938 399.363281 L 319.585938 486.574219 C 319.488281 487.007812 319.195312 487.375 318.792969 487.5625 C 318.601562 487.648438 318.398438 487.691406 318.199219 487.691406 " fill-opacity="1" fill-rule="nonzero"/><path fill="#ffffff" d="M 557.949219 575.523438 C 557.949219 575.523438 553.414062 541.589844 569.738281 529.796875 C 582.105469 520.863281 600.105469 515.308594 607.09375 513.234375 C 609.117188 512.632812 612.890625 513.0625 613.761719 514.992188 C 613.761719 514.992188 615.332031 518.652344 610.101562 521.117188 L 595 527.421875 C 593.582031 528.089844 593.367188 530.015625 594.609375 530.972656 C 598.414062 533.917969 605.328125 542.101562 606.445312 546.550781 C 608.304688 553.988281 604.328125 560.589844 597.234375 566.667969 C 590.140625 572.753906 588.28125 573.910156 587.945312 575.523438 C 587.609375 577.140625 575.832031 590.902344 575.832031 590.902344 L 557.949219 575.523438 " fill-opacity="1" fill-rule="nonzero"/><path fill="#000000" d="M 586.5625 575.214844 C 586.558594 575.222656 586.558594 575.226562 586.558594 575.238281 C 586.558594 575.226562 586.558594 575.222656 586.5625 575.214844 Z M 559.292969 574.8125 L 575.679688 588.902344 C 580.796875 582.875 586.042969 576.378906 586.570312 575.167969 C 586.949219 573.484375 588.1875 572.441406 592.179688 569.09375 C 593.304688 568.148438 594.667969 567 596.3125 565.59375 C 603.753906 559.214844 606.617188 553.097656 605.066406 546.894531 C 604.050781 542.835938 597.386719 534.917969 593.738281 532.097656 C 592.761719 531.339844 592.261719 530.15625 592.398438 528.933594 C 592.53125 527.707031 593.277344 526.664062 594.398438 526.140625 L 609.554688 519.8125 C 613.441406 517.972656 612.5 515.644531 612.457031 515.550781 C 612.039062 514.625 609.246094 514.074219 607.496094 514.59375 C 591.414062 519.363281 578.992188 524.863281 570.570312 530.949219 C 556.203125 541.328125 558.820312 570.519531 559.292969 574.8125 Z M 575.832031 592.324219 C 575.496094 592.324219 575.164062 592.207031 574.90625 591.980469 L 557.023438 576.601562 C 556.757812 576.371094 556.585938 576.058594 556.542969 575.710938 C 556.351562 574.292969 552.085938 540.796875 568.910156 528.648438 C 577.589844 522.375 590.300781 516.734375 606.6875 511.875 C 609.28125 511.105469 613.835938 511.707031 615.054688 514.40625 C 615.796875 516.132812 615.824219 519.988281 610.707031 522.40625 L 595.546875 528.734375 C 595.304688 528.847656 595.234375 529.105469 595.21875 529.246094 C 595.199219 529.382812 595.21875 529.652344 595.476562 529.851562 C 599.5 532.964844 606.617188 541.394531 607.816406 546.207031 C 609.660156 553.554688 606.496094 560.601562 598.15625 567.746094 C 596.503906 569.164062 595.136719 570.3125 594.003906 571.265625 C 590.816406 573.945312 589.492188 575.054688 589.335938 575.816406 C 588.996094 577.445312 582.390625 585.425781 576.910156 591.828125 C 576.664062 592.113281 576.316406 592.289062 575.941406 592.320312 C 575.90625 592.324219 575.867188 592.324219 575.832031 592.324219 " fill-opacity="1" fill-rule="nonzero"/><path fill="#da0803" d="M 108.46875 671.949219 C 105.695312 668.246094 53.78125 629.398438 58.410156 588.738281 C 63.035156 548.082031 147.257812 456.839844 202.558594 445.675781 C 257.855469 434.515625 193.886719 629.199219 193.886719 629.199219 L 108.46875 671.949219 " fill-opacity="1" fill-rule="nonzero"/><path fill="#da0803" d="M 361.8125 510.703125 L 326.046875 639.902344 L 284.800781 788.914062 C 265.628906 783.242188 246.703125 775.984375 228.199219 767.027344 C 208.96875 757.714844 191.039062 746.964844 174.40625 735.015625 C 146.015625 714.632812 121.394531 690.75 100.53125 664.53125 L 106.3125 649.203125 L 106.332031 649.144531 L 169.859375 480.898438 C 175.210938 466.738281 184.890625 454.949219 197.207031 446.984375 C 197.207031 446.972656 197.21875 446.972656 197.21875 446.972656 C 204.675781 442.148438 213.09375 438.730469 222.105469 437.050781 C 235.558594 434.539062 251.890625 433.359375 270.472656 435.558594 C 271.316406 435.65625 272.148438 435.78125 272.980469 435.902344 C 292.40625 438.914062 309.515625 449.726562 323.398438 462.238281 C 329.0625 467.34375 334.191406 472.738281 338.707031 478 C 338.832031 478.140625 338.953125 478.285156 339.074219 478.4375 C 339.359375 478.746094 339.617188 479.050781 339.878906 479.367188 C 340.019531 479.523438 340.164062 479.695312 340.316406 479.863281 C 354.015625 496.179688 361.8125 510.703125 361.8125 510.703125 " fill-opacity="1" fill-rule="nonzero"/><path fill="#da0803" d="M 303.714844 626.5 L 393.871094 680.597656 C 442.226562 712.710938 505.859375 719.910156 537.824219 679.570312 C 554.128906 658.996094 570.894531 629.941406 584.40625 590.902344 L 553.464844 562.726562 L 493.933594 614.152344 C 484.574219 622.238281 470.503906 621.464844 462.089844 612.40625 C 429.457031 577.269531 354.023438 495.894531 338.707031 477.996094 C 319.042969 455.019531 303.714844 626.5 303.714844 626.5 " fill-opacity="1" fill-rule="nonzero"/><path fill="#000000" d="M 106.316406 650.625 C 106.140625 650.625 105.957031 650.589844 105.78125 650.515625 C 105.054688 650.222656 104.707031 649.394531 105.003906 648.667969 L 153.390625 529.738281 C 153.6875 529.015625 154.511719 528.667969 155.242188 528.964844 C 155.96875 529.253906 156.316406 530.082031 156.019531 530.8125 L 107.632812 649.738281 C 107.40625 650.289062 106.875 650.625 106.316406 650.625 " fill-opacity="1" fill-rule="nonzero"/><path fill="#000000" d="M 241.410156 703.71875 C 241.277344 703.71875 241.144531 703.695312 241.007812 703.660156 C 240.257812 703.4375 239.828125 702.652344 240.050781 701.894531 C 240.1875 701.425781 254.683594 654.039062 308.476562 627.6875 C 309.179688 627.339844 310.03125 627.632812 310.375 628.335938 C 310.722656 629.042969 310.429688 629.890625 309.726562 630.238281 C 257.097656 656.019531 242.910156 702.234375 242.773438 702.703125 C 242.589844 703.316406 242.023438 703.71875 241.410156 703.71875 " fill-opacity="1" fill-rule="nonzero"/><path fill="#ffffff" d="M 557.371094 758.933594 C 556.84375 758.933594 556.339844 758.636719 556.089844 758.132812 C 555.753906 757.425781 556.042969 756.574219 556.746094 756.234375 C 557.914062 755.667969 673.6875 698.964844 703.519531 642.339844 C 703.886719 641.644531 704.746094 641.378906 705.4375 641.742188 C 706.132812 642.109375 706.398438 642.96875 706.03125 643.664062 C 693.308594 667.8125 664.515625 694.53125 620.445312 723.082031 C 587.699219 744.300781 558.285156 758.644531 557.988281 758.789062 C 557.792969 758.882812 557.578125 758.933594 557.371094 758.933594 " fill-opacity="1" fill-rule="nonzero"/><path fill="#ffffff" d="M 540.554688 738.410156 C 540.222656 738.410156 539.890625 738.296875 539.621094 738.058594 C 539.03125 737.546875 538.972656 736.648438 539.488281 736.058594 L 601.796875 664.695312 C 602.222656 664.207031 602.925781 664.066406 603.507812 664.363281 C 604.089844 664.660156 604.394531 665.308594 604.25 665.945312 L 593.765625 711.992188 L 657.308594 642.042969 C 657.835938 641.464844 658.738281 641.421875 659.3125 641.949219 C 659.890625 642.476562 659.9375 643.375 659.414062 643.953125 L 592.230469 717.902344 C 591.796875 718.378906 591.097656 718.507812 590.527344 718.207031 C 589.953125 717.910156 589.65625 717.265625 589.796875 716.632812 L 600.230469 670.800781 L 541.625 737.921875 C 541.347656 738.246094 540.949219 738.410156 540.554688 738.410156 " fill-opacity="1" fill-rule="nonzero"/><path fill="#ffffff" d="M 585.675781 659.480469 C 584.894531 659.480469 584.265625 658.855469 584.257812 658.074219 C 584.242188 656.78125 584.1875 626.183594 603.75 612.652344 C 604.394531 612.203125 605.277344 612.363281 605.722656 613.011719 C 606.167969 613.65625 606.007812 614.539062 605.363281 614.984375 C 587.023438 627.671875 587.09375 657.746094 587.097656 658.046875 C 587.101562 658.832031 586.476562 659.472656 585.691406 659.480469 C 585.6875 659.480469 585.683594 659.480469 585.675781 659.480469 " fill-opacity="1" fill-rule="nonzero"/><path fill="#ffffff" d="M 608.394531 641.078125 C 607.945312 641.078125 607.507812 640.875 607.234375 640.484375 C 606.78125 639.84375 606.929688 638.957031 607.570312 638.503906 C 607.746094 638.375 625.402344 625.480469 626.140625 597.453125 C 626.160156 596.667969 626.847656 596.054688 627.597656 596.074219 C 628.378906 596.09375 628.996094 596.746094 628.976562 597.527344 C 628.203125 627.035156 609.984375 640.269531 609.210938 640.820312 C 608.960938 640.996094 608.675781 641.078125 608.394531 641.078125 " fill-opacity="1" fill-rule="nonzero"/><path fill="#000000" d="M 676.222656 106.8125 C 674.785156 106.8125 673.617188 107.980469 673.617188 109.417969 C 673.617188 110.851562 674.785156 112.019531 676.222656 112.019531 C 677.65625 112.019531 678.828125 110.851562 678.828125 109.417969 C 678.828125 107.980469 677.65625 106.8125 676.222656 106.8125 Z M 676.222656 114.859375 C 673.222656 114.859375 670.78125 112.417969 670.78125 109.417969 C 670.78125 106.417969 673.222656 103.976562 676.222656 103.976562 C 679.222656 103.976562 681.664062 106.417969 681.664062 109.417969 C 681.664062 112.417969 679.222656 114.859375 676.222656 114.859375 " fill-opacity="1" fill-rule="nonzero"/><path fill="#000000" d="M 704.507812 95.097656 C 701.648438 95.097656 699.320312 97.421875 699.320312 100.285156 C 699.320312 103.144531 701.648438 105.472656 704.507812 105.472656 C 707.367188 105.472656 709.695312 103.144531 709.695312 100.285156 C 709.695312 97.421875 707.367188 95.097656 704.507812 95.097656 Z M 704.507812 108.308594 C 700.085938 108.308594 696.484375 104.710938 696.484375 100.285156 C 696.484375 95.859375 700.085938 92.261719 704.507812 92.261719 C 708.933594 92.261719 712.535156 95.859375 712.535156 100.285156 C 712.535156 104.710938 708.933594 108.308594 704.507812 108.308594 " fill-opacity="1" fill-rule="nonzero"/><path fill="#000000" d="M 708.625 69.566406 L 718.402344 82.214844 L 724.464844 67.421875 Z M 719.160156 87.839844 L 703.371094 67.410156 L 728.960938 63.949219 L 719.160156 87.839844 " fill-opacity="1" fill-rule="nonzero"/><path fill="#ffffff" d="M 581.867188 130.019531 C 581.230469 130.019531 580.652344 129.589844 580.488281 128.945312 C 580.21875 127.867188 574.132812 102.273438 598.453125 76.386719 C 598.992188 75.8125 599.886719 75.785156 600.464844 76.320312 C 601.03125 76.855469 601.058594 77.757812 600.523438 78.328125 C 577.257812 103.097656 583.179688 128.003906 583.246094 128.253906 C 583.4375 129.011719 582.976562 129.78125 582.214844 129.972656 C 582.097656 130.003906 581.980469 130.019531 581.867188 130.019531 " fill-opacity="1" fill-rule="nonzero"/><path fill="#ffffff" d="M 580.792969 47.6875 C 580.597656 47.6875 580.390625 47.648438 580.195312 47.558594 C 549.605469 33.375 501.394531 31.289062 500.910156 31.265625 C 500.128906 31.238281 499.519531 30.574219 499.550781 29.792969 C 499.578125 29.011719 500.265625 28.398438 501.023438 28.429688 C 501.515625 28.453125 550.292969 30.5625 581.390625 44.984375 C 582.101562 45.308594 582.410156 46.15625 582.082031 46.867188 C 581.839844 47.382812 581.332031 47.6875 580.792969 47.6875 " fill-opacity="1" fill-rule="nonzero"/><path fill="#ffffff" d="M 28.71875 466.285156 C 28.019531 466.285156 27.410156 465.769531 27.3125 465.058594 C 27.191406 464.144531 15.496094 372.78125 56.828125 283.613281 C 57.160156 282.90625 58.003906 282.597656 58.714844 282.929688 C 59.425781 283.253906 59.734375 284.101562 59.40625 284.8125 C 18.429688 373.199219 30.007812 463.773438 30.125 464.675781 C 30.230469 465.453125 29.6875 466.167969 28.910156 466.273438 C 28.84375 466.28125 28.78125 466.285156 28.71875 466.285156 " fill-opacity="1" fill-rule="nonzero"/></svg>