<?xml version="1.0" encoding="UTF-8" standalone="no"?>
<!-- Uploaded to: SVG Repo, www.svgrepo.com, Generator: SVG Repo Mixer Tools -->

<svg
   width="666.68677"
   height="766.66852"
   viewBox="0 0 20.000603 23.000056"
   fill="none"
   version="1.1"
   id="svg134"
   sodipodi:docname="pdf-file-svgrepo-com.svg"
   xmlns:inkscape="http://www.inkscape.org/namespaces/inkscape"
   xmlns:sodipodi="http://sodipodi.sourceforge.net/DTD/sodipodi-0.dtd"
   xmlns="http://www.w3.org/2000/svg"
   xmlns:svg="http://www.w3.org/2000/svg">
  <defs
     id="defs138" />
  <sodipodi:namedview
     id="namedview136"
     pagecolor="#ffffff"
     bordercolor="#999999"
     borderopacity="1"
     inkscape:showpageshadow="0"
     inkscape:pageopacity="0"
     inkscape:pagecheckerboard="0"
     inkscape:deskcolor="#d1d1d1"
     showgrid="false" />
  <path
     fill-rule="evenodd"
     clip-rule="evenodd"
     d="M 6.9999992,3.5717773e-8 C 6.7347792,3.5717773e-8 6.4804292,0.10536004 6.2928892,0.29289004 L 0.29288923,6.29289 C 0.10535923,6.4804302 -7.7148437e-7,6.7347802 -7.7148437e-7,7.0000002 V 19 c 0,1.6569 1.34314997148437,3 2.99999997148437,3 h 1 c 0.55228,0 1,-0.4477 1,-1 0,-0.5523 -0.44772,-1 -1,-1 h -1 c -0.55228,0 -1,-0.4477 -1,-1 V 8.0000002 h 5 c 0.5523,0 1,-0.44772 1,-1 V 2 h 6.9999998 c 0.5523,0 1,0.44772 1,1 v 7 c 0,0.5523 0.4477,1 1,1 0.5523,0 1,-0.4477 1,-1 V 3 c 0,-1.65685 -1.3431,-2.999999964282227 -3,-2.999999964282227 z M 5.9999992,6 h -2.58579 l 2.58579,-2.58579 z m 1.3078,16.5628 c 0.1579,0.1947 0.3874,0.3544 0.6768,0.4134 0.271,0.0554 0.5077,0.0048 0.6717,-0.055 0.3018,-0.1101 0.5393,-0.3177 0.6942,-0.4706 0.2436,-0.2401 0.4986,-0.5658 0.7523998,-0.9337 1.1093,-0.3827 2.6682,-0.7349 4.1841,-0.9567 0.8427,-0.1234 1.6295,-0.1999 2.2919,-0.2259 0.2624,0.3089 0.5011,0.5751 0.6999,0.7762 0.1244,0.1258 0.2627,0.2566 0.398,0.3566 0.061,0.0451 0.1751,0.1249 0.3222,0.1822 0.0765,0.0298 0.5791,0.2217 1.0434,-0.1524 0.2732,-0.2201 0.5261,-0.4665 0.702,-0.7444 0.1768,-0.2792 0.3435,-0.7054 0.2047,-1.19 -0.136,-0.4744 -0.4903,-0.7404 -0.7511,-0.8777 -0.2661,-0.14 -0.5651,-0.218 -0.8394,-0.2661 -0.2486,-0.0436 -0.5298,-0.0709 -0.8353,-0.0843 -0.6191,-0.7729 -1.3428,-1.7342 -2.0303,-2.7146 -0.603,-0.8598 -1.1652,-1.7158 -1.602,-2.4611 0.0449,-0.1923 0.0824,-0.3771 0.1115,-0.5527 0.0498,-0.3008 0.0799,-0.602 0.0733,-0.8849 -0.0063,-0.2714 -0.0474,-0.5982 -0.1958,-0.9034 -0.1646,-0.3382 -0.464,-0.6461 -0.9118,-0.7667 -0.4018,-0.1081998 -0.7849,-0.0271 -1.0788,0.0816 -0.4535,0.1678 -0.7021,0.54 -0.788,0.9035 -0.0726,0.3076 -0.0333,0.6046 0.0122,0.8168 0.094,0.4386 0.3133,0.9427 0.5659,1.4364 0.0225,0.0439 0.0456,0.0884 0.0692,0.1332 -0.2384,0.7847 -0.5909,1.7103 -1.0095,2.6674 -0.6136,1.403 -1.3336998,2.7937 -1.9538998,3.7881 -0.4234,0.1774 -0.8141,0.3804 -1.1107,0.6136 -0.202,0.1589 -0.4727,0.4174 -0.6022,0.7952 -0.1592,0.4646 -0.0463,0.9286 0.2354,1.276 z m 1.5679,-0.4681 c -2e-4,-10e-5 0.0018,-0.0024 0.0067,-0.007 -0.0041,0.0047 -0.0065,0.007 -0.0067,0.007 z m 5.1216998,-3.5135 c -0.8139,0.1191 -1.6529,0.2754 -2.4476,0.458 0.3543,-0.6869 0.7031,-1.4191 1.0218,-2.1478 0.181,-0.4139 0.3553,-0.8333 0.5169,-1.2483 0.2475,0.3744 0.5057,0.7525 0.767,1.125 0.4026,0.574 0.8179,1.1429 1.2204,1.6756 -0.3573,0.0385 -0.7192,0.085 -1.0785,0.1375 z m -0.9365,-7.197 c -10e-5,-0.0013 -2e-4,-0.0019 -3e-4,-0.0019 0,-1e-4 10e-5,0.0015 4e-4,0.0049 0,-0.0012 -1e-4,-0.0022 -1e-4,-0.003 z"
     fill="#000000"
     id="path132"
     style="fill:#ffffff" />
</svg>
